<svg width="27" height="24" viewBox="0 0 27 24" fill="none" xmlns="http://www.w3.org/2000/svg">
<g clip-path="url(#clip0_4881_899)">
<path d="M7.49999 0C6.6703 0 5.99999 0.670312 5.99999 1.5C5.99999 2.32969 6.6703 3 7.49999 3H9.87655L0.440613 12.4406C-0.145325 13.0266 -0.145325 13.9781 0.440613 14.5641C1.02655 15.15 1.97811 15.15 2.56405 14.5641L12 5.12344V7.5C12 8.32969 12.6703 9 13.5 9C14.3297 9 15 8.32969 15 7.5V1.5C15 0.670312 14.3297 0 13.5 0H7.49999ZM27 3.75C27 3.15326 26.7629 2.58097 26.341 2.15901C25.919 1.73705 25.3467 1.5 24.75 1.5C24.1532 1.5 23.581 1.73705 23.159 2.15901C22.737 2.58097 22.5 3.15326 22.5 3.75C22.5 4.34674 22.737 4.91903 23.159 5.34099C23.581 5.76295 24.1532 6 24.75 6C25.3467 6 25.919 5.76295 26.341 5.34099C26.7629 4.91903 27 4.34674 27 3.75ZM21 9.75C21 9.45453 20.9418 9.16194 20.8287 8.88896C20.7156 8.61598 20.5499 8.36794 20.341 8.15901C20.132 7.95008 19.884 7.78434 19.611 7.67127C19.338 7.5582 19.0455 7.5 18.75 7.5C18.4545 7.5 18.1619 7.5582 17.889 7.67127C17.616 7.78434 17.3679 7.95008 17.159 8.15901C16.9501 8.36794 16.7843 8.61598 16.6713 8.88896C16.5582 9.16194 16.5 9.45453 16.5 9.75C16.5 10.0455 16.5582 10.3381 16.6713 10.611C16.7843 10.884 16.9501 11.1321 17.159 11.341C17.3679 11.5499 17.616 11.7157 17.889 11.8287C18.1619 11.9418 18.4545 12 18.75 12C19.0455 12 19.338 11.9418 19.611 11.8287C19.884 11.7157 20.132 11.5499 20.341 11.341C20.5499 11.1321 20.7156 10.884 20.8287 10.611C20.9418 10.3381 21 10.0455 21 9.75ZM18.75 18C19.3467 18 19.919 17.7629 20.341 17.341C20.7629 16.919 21 16.3467 21 15.75C21 15.1533 20.7629 14.581 20.341 14.159C19.919 13.7371 19.3467 13.5 18.75 13.5C18.1533 13.5 17.581 13.7371 17.159 14.159C16.737 14.581 16.5 15.1533 16.5 15.75C16.5 16.3467 16.737 16.919 17.159 17.341C17.581 17.7629 18.1533 18 18.75 18ZM21 21.75C21 21.4545 20.9418 21.1619 20.8287 20.889C20.7156 20.616 20.5499 20.3679 20.341 20.159C20.132 19.9501 19.884 19.7843 19.611 19.6713C19.338 19.5582 19.0455 19.5 18.75 19.5C18.4545 19.5 18.1619 19.5582 17.889 19.6713C17.616 19.7843 17.3679 19.9501 17.159 20.159C16.9501 20.3679 16.7843 20.616 16.6713 20.889C16.5582 21.1619 16.5 21.4545 16.5 21.75C16.5 22.0455 16.5582 22.3381 16.6713 22.611C16.7843 22.884 16.9501 23.1321 17.159 23.341C17.3679 23.5499 17.616 23.7157 17.889 23.8287C18.1619 23.9418 18.4545 24 18.75 24C19.0455 24 19.338 23.9418 19.611 23.8287C19.884 23.7157 20.132 23.5499 20.341 23.341C20.5499 23.1321 20.7156 22.884 20.8287 22.611C20.9418 22.3381 21 22.0455 21 21.75ZM27 21.75C27 21.1533 26.7629 20.581 26.341 20.159C25.919 19.7371 25.3467 19.5 24.75 19.5C24.1532 19.5 23.581 19.7371 23.159 20.159C22.737 20.581 22.5 21.1533 22.5 21.75C22.5 22.3467 22.737 22.919 23.159 23.341C23.581 23.7629 24.1532 24 24.75 24C25.3467 24 25.919 23.7629 26.341 23.341C26.7629 22.919 27 22.3467 27 21.75ZM12.75 18C13.3467 18 13.919 17.7629 14.341 17.341C14.7629 16.919 15 16.3467 15 15.75C15 15.1533 14.7629 14.581 14.341 14.159C13.919 13.7371 13.3467 13.5 12.75 13.5C12.1533 13.5 11.581 13.7371 11.159 14.159C10.737 14.581 10.5 15.1533 10.5 15.75C10.5 16.3467 10.737 16.919 11.159 17.341C11.581 17.7629 12.1533 18 12.75 18ZM15 21.75C15 21.1533 14.7629 20.581 14.341 20.159C13.919 19.7371 13.3467 19.5 12.75 19.5C12.1533 19.5 11.581 19.7371 11.159 20.159C10.737 20.581 10.5 21.1533 10.5 21.75C10.5 22.3467 10.737 22.919 11.159 23.341C11.581 23.7629 12.1533 24 12.75 24C13.3467 24 13.919 23.7629 14.341 23.341C14.7629 22.919 15 22.3467 15 21.75ZM6.74999 24C7.34673 24 7.91902 23.7629 8.34098 23.341C8.76294 22.919 8.99999 22.3467 8.99999 21.75C8.99999 21.1533 8.76294 20.581 8.34098 20.159C7.91902 19.7371 7.34673 19.5 6.74999 19.5C6.15325 19.5 5.58095 19.7371 5.159 20.159C4.73704 20.581 4.49999 21.1533 4.49999 21.75C4.49999 22.3467 4.73704 22.919 5.159 23.341C5.58095 23.7629 6.15325 24 6.74999 24ZM27 15.75C27 15.1533 26.7629 14.581 26.341 14.159C25.919 13.7371 25.3467 13.5 24.75 13.5C24.1532 13.5 23.581 13.7371 23.159 14.159C22.737 14.581 22.5 15.1533 22.5 15.75C22.5 16.3467 22.737 16.919 23.159 17.341C23.581 17.7629 24.1532 18 24.75 18C25.3467 18 25.919 17.7629 26.341 17.341C26.7629 16.919 27 16.3467 27 15.75ZM24.75 12C25.3467 12 25.919 11.7629 26.341 11.341C26.7629 10.919 27 10.3467 27 9.75C27 9.15326 26.7629 8.58097 26.341 8.15901C25.919 7.73705 25.3467 7.5 24.75 7.5C24.1532 7.5 23.581 7.73705 23.159 8.15901C22.737 8.58097 22.5 9.15326 22.5 9.75C22.5 10.3467 22.737 10.919 23.159 11.341C23.581 11.7629 24.1532 12 24.75 12Z" fill="#F67924"/>
</g>
<defs>
<clipPath id="clip0_4881_899">
<rect width="27" height="24" fill="white"/>
</clipPath>
</defs>
</svg>
