<svg width="25" height="32" viewBox="0 0 25 32" fill="none" xmlns="http://www.w3.org/2000/svg">
<path d="M16 6C14.3125 6 13 4.6875 13 3C13 1.375 14.3125 0 16 0C17.625 0 19 1.375 19 3C19 4.6875 17.625 6 16 6ZM6 18C5.875 18 5.8125 18 5.75 18L1.75 17.0625C1.25 16.9375 0.9375 16.5625 0.9375 16.125C0.9375 16 1 15.9375 1 15.875L2.5625 9.75C3.1875 7.5 5.25 6 7.5625 6C7.9375 6 8.375 6.0625 8.8125 6.1875C9.25 6.25 9.5625 6.6875 9.5625 7.125C9.5625 7.1875 9.5625 7.25 9.5625 7.3125L6.9375 17.25C6.8125 17.6875 6.4375 18 6 18ZM24 10C24.5 10 25 10.5 25 11V31C25 31.5625 24.5 32 23.8125 32H22.875C22.375 32 21.9375 31.5625 21.9375 31V16H19C18.4375 16 17.9375 15.8125 17.4375 15.4375L16.0625 14.0625L14.875 19C14.8125 19.0625 14.8125 19.0625 14.8125 19.125L17.75 22C18.5 22.8125 18.9375 23.8125 18.9375 24.875V30C18.9375 31.125 17.9375 32 16.9375 32C15.875 32 14.9375 31.125 14.9375 30V24.875L9.5625 19.4375C9.1875 19.0625 9 18.5625 9 18.0625C9 17.875 9 17.6875 9.0625 17.5625L10.6875 10.8125C11.125 9.1875 12.5625 8 14.25 8C15.25 8 16.1875 8.4375 17 9.125L19.9375 12H22.0625V11C22.0625 10.5 22.5 10 23 10H24ZM6.0625 29.5625L8.125 20.875L11.4375 24.1875L9.875 30.5C9.6875 31.4375 8.875 32 8 32C7.8125 32 7.625 32 7.5 32C6.5625 31.75 6 30.9375 6 30.0625C6 29.875 6 29.6875 6.0625 29.5625Z" fill="#476930"/>
</svg>
