<svg width="32" height="32" viewBox="0 0 32 32" fill="none" xmlns="http://www.w3.org/2000/svg">
<path d="M18 16C18 17.125 17.0625 18 16 18C14.875 18 14 17.125 14 16C14 14.9375 14.875 14 16 14C17.0625 14 18 14.9375 18 16ZM0 16C0 7.1875 7.125 0 16 0C24.8125 0 32 7.1875 32 16C32 24.875 24.8125 32 16 32C7.125 32 0 24.875 0 16ZM20.3125 19.1875L23.75 10.1875C24.25 8.9375 23.0625 7.75 21.8125 8.25L12.8125 11.6875C12.25 11.9375 11.875 12.3125 11.625 12.875L8.1875 21.875C7.6875 23.0625 8.875 24.3125 10.125 23.8125L19.125 20.375C19.6875 20.125 20.0625 19.75 20.3125 19.1875Z" fill="#476930"/>
</svg>
