<svg width="45" height="45" viewBox="0 0 45 45" fill="none" xmlns="http://www.w3.org/2000/svg">
<g clip-path="url(#clip0_2042_454)">
<path d="M40.2891 5.65137C35.209 1.37989 27.3604 2.02149 22.5 6.96973C17.6397 2.02149 9.79103 1.3711 4.71095 5.65137C-1.89843 11.2148 -0.93163 20.2852 3.77931 25.0928L19.1953 40.7988C20.0742 41.6953 21.252 42.1963 22.5 42.1963C23.7568 42.1963 24.9258 41.7041 25.8047 40.8076L41.2207 25.1016C45.9229 20.2939 46.9072 11.2236 40.2891 5.65137ZM38.2149 22.1309L22.7988 37.8369C22.5879 38.0479 22.4121 38.0479 22.2012 37.8369L6.78517 22.1309C3.57716 18.8613 2.92677 12.6738 7.42677 8.88575C10.8457 6.01172 16.1192 6.44239 19.4238 9.8086L22.5 12.9463L25.5762 9.8086C28.8985 6.42481 34.1719 6.01172 37.5733 8.87696C42.0645 12.665 41.3965 18.8877 38.2149 22.1309Z" fill="black"/>
</g>
<defs>
<clipPath id="clip0_2042_454">
<rect width="45" height="45" fill="white"/>
</clipPath>
</defs>
</svg>
