<svg width="19" height="19" viewBox="0 0 19 19" fill="none" xmlns="http://www.w3.org/2000/svg">
<g clip-path="url(#clip0_2041_222)">
<path d="M12.1198 6.87993C14.3352 9.09907 14.3055 12.6579 12.1346 14.8436C12.1309 14.8473 12.1272 14.8547 12.1198 14.8584L9.62602 17.3522C7.42544 19.5528 3.8481 19.5528 1.64751 17.3522C-0.553076 15.1516 -0.553076 11.5743 1.64751 9.37368L3.02427 7.99692C3.38794 7.63325 4.0188 7.87446 4.03735 8.39028C4.05962 9.04712 4.17837 9.70767 4.39731 10.3459C4.47153 10.5612 4.41958 10.8024 4.2563 10.962L3.77017 11.4481C2.7311 12.4872 2.6977 14.1831 3.72563 15.2333C4.7647 16.2946 6.47544 16.2983 7.52192 15.2518L10.0157 12.7581C11.0622 11.7116 11.0584 10.0194 10.0157 8.98032C9.87837 8.84302 9.74106 8.7354 9.63345 8.66118C9.55727 8.6086 9.49445 8.53893 9.44999 8.45774C9.40553 8.37656 9.38067 8.28611 9.37739 8.1936C9.36255 7.80024 9.49985 7.39575 9.81157 7.08774L10.5946 6.30474C10.7987 6.10063 11.1215 6.07466 11.359 6.24165C11.6308 6.43171 11.8854 6.64529 12.1198 6.87993ZM17.3485 1.64751C15.1479 -0.553076 11.5706 -0.553076 9.36997 1.64751L6.87622 4.14126C6.87251 4.14497 6.86509 4.15239 6.86138 4.1561C4.68677 6.34185 4.65708 9.90064 6.87622 12.1198C7.11061 12.3544 7.36517 12.568 7.63696 12.7581C7.87446 12.925 8.19731 12.8991 8.40141 12.695L9.18442 11.912C9.49614 11.6002 9.63345 11.1995 9.6186 10.8061C9.61532 10.7136 9.59046 10.6231 9.546 10.542C9.50154 10.4608 9.43872 10.3911 9.36255 10.3385C9.25493 10.2643 9.11763 10.1567 8.98032 10.0194C7.93755 8.97661 7.93384 7.28813 8.98032 6.24165L11.4741 3.7479C12.5206 2.70142 14.2313 2.70513 15.2704 3.76645C16.302 4.81665 16.2686 6.50884 15.2258 7.55161L14.7397 8.03774C14.5764 8.20103 14.5245 8.43853 14.5987 8.65376C14.8176 9.29204 14.9327 9.95259 14.9586 10.6094C14.9772 11.1252 15.6081 11.3665 15.9717 11.0028L17.3485 9.62603C19.5491 7.42544 19.5491 3.8481 17.3485 1.64751Z" fill="#476930"/>
</g>
<defs>
<clipPath id="clip0_2041_222">
<rect width="19" height="19" fill="white"/>
</clipPath>
</defs>
</svg>
