<svg width="51" height="52" viewBox="0 0 51 52" fill="none" xmlns="http://www.w3.org/2000/svg">
<g clip-path="url(#clip0_2042_449)">
<path d="M50.8641 28.8537C50.4974 30.6966 50.2801 32.5395 49.7232 34.2724C49.1392 36.0741 48.3922 37.8757 47.4279 39.4986C46.0425 41.8366 44.3312 43.9408 42.2532 45.7424C40.5962 47.1727 38.8169 48.4105 36.8883 49.3869C35.4622 50.1021 34.0089 50.8035 32.3791 51.0648C31.116 51.2711 29.8936 51.7937 28.6441 51.9037C26.7426 52.055 24.814 51.9862 22.899 51.9725C22.1248 51.9587 21.3235 51.9175 20.5629 51.7387C19.2183 51.4224 17.8737 51.051 16.5698 50.5972C15.7549 50.3221 15.0079 49.8545 14.2473 49.4419C13.2966 48.9193 12.3187 48.4105 11.4223 47.8053C10.39 47.1039 9.33065 46.3888 8.43425 45.5224C7.14397 44.2983 5.81294 43.0468 4.82147 41.589C3.5991 39.7736 2.60762 37.7794 1.73838 35.7577C0.638245 33.2272 0.176461 30.5316 0.0406419 27.7398C-0.122341 24.4115 0.176461 21.1796 1.3445 18.0852C2.06434 16.1873 3.05582 14.3856 4.02014 12.584C5.06594 10.6035 6.72293 9.10447 8.20336 7.49538C8.95036 6.6702 10.0641 6.2026 10.9469 5.50119C12.4681 4.30469 14.1658 3.46575 15.9315 2.73685C18.2132 1.78789 20.5629 1.10024 23.0212 1.03148C24.977 0.976466 26.9464 1.08649 28.9022 1.23777C32.026 1.47157 34.9054 2.53055 37.6489 4.01587C39.5232 5.01984 41.2481 6.2301 42.7693 7.72918C43.5027 8.45808 44.3312 9.10447 45.0103 9.88839C45.6215 10.5898 46.124 11.4012 46.5994 12.1989C47.3328 13.4092 48.0798 14.6332 48.7181 15.8984C49.7775 17.9889 50.3887 20.2306 50.7011 22.5411C50.9184 24.1227 50.932 25.7181 50.9863 27.3134C51.0135 27.7948 50.9184 28.3036 50.8641 28.8537ZM46.1647 32.7596C45.9882 32.7183 45.8116 32.6633 45.635 32.6496C42.3618 32.4158 39.1972 32.8421 36.1549 34.0936C35.4079 34.4099 34.6473 34.6988 33.8324 34.9876C33.8052 34.9876 33.7916 34.9876 33.7781 34.8775C35.2313 33.6948 36.1956 32.1682 36.9019 30.3253C37.1464 30.3116 37.3908 30.2841 37.6489 30.2841C39.985 30.2703 42.3075 30.2703 44.7658 30.2841C45.8388 30.2841 46.9117 30.2841 47.9711 30.2841C48.2835 28.0286 48.4193 25.8556 48.1613 23.6001C48.1205 23.3113 48.0662 23.0225 48.0255 22.7337C47.5773 19.9281 46.6673 17.3012 45.1461 14.7982C44.5892 13.9868 44.0731 13.1341 43.4619 12.3639C41.3296 9.66835 38.7626 7.49538 35.7067 5.9688C31.6457 3.93336 27.3402 3.14944 22.8311 3.67205C21.4321 3.83708 20.0739 4.27718 18.6207 4.5935C18.5528 4.621 18.4713 4.63476 18.2947 4.67602C16.7056 5.43243 15.1165 6.17509 13.446 6.94526C12.9163 7.31659 12.3866 7.68792 11.8026 8.073C11.789 8.10051 11.789 8.11426 11.6803 8.16927C9.41215 9.92965 7.4971 12.0201 5.93518 14.5782C4.86221 16.311 4.00655 18.1402 3.4497 20.2169C2.82493 22.4311 2.49896 24.6866 2.64836 27.1209C2.72986 28.1798 2.81135 29.2251 2.89284 30.2703C4.40043 30.2703 5.7722 30.2703 7.27979 30.2978C9.33065 30.2978 11.3815 30.3116 13.446 30.2978C13.8534 30.2978 14.0707 30.3803 14.2337 30.8067C14.8449 32.2782 15.7006 33.571 16.8686 34.6575C16.9637 34.74 17.0044 34.8775 16.9637 35.0013C16.5426 34.8363 16.1352 34.6713 15.7141 34.4925C11.8297 32.8421 7.80948 32.4158 3.5991 33.1309C3.95223 34.0386 4.29177 34.9051 4.61774 35.7715C4.7943 35.7577 4.90296 35.744 5.01161 35.744C8.42067 35.3451 11.7211 35.8128 14.8992 37.133C17.765 38.3158 20.6172 39.4573 23.7546 39.7323C26.6204 39.9799 29.3639 39.5811 32.1482 38.5909C32.5693 38.4258 32.9767 38.2608 33.4928 38.082C33.7645 37.9582 34.0497 37.8344 34.4164 37.6832C34.9868 37.3943 35.5437 37.1055 36.1956 36.803C36.345 36.7067 36.4944 36.6242 36.7389 36.5279C37.7168 36.019 38.6947 35.4964 39.6862 35.0151C41.7778 34.0111 43.9781 33.3235 46.3685 32.9659C46.45 32.9384 46.5179 32.9246 46.5994 32.8971C46.5994 32.8696 46.5858 32.8559 46.5858 32.8284C46.45 32.8008 46.3549 32.8008 46.1647 32.7596ZM43.2718 36.0053C42.8915 36.1566 42.4976 36.2666 42.1309 36.4454C39.9171 37.5319 37.7168 38.6321 35.503 39.7048C32.7458 41.0389 29.8665 41.8916 26.8105 42.1254C22.8175 42.4279 19.0689 41.4652 15.4289 39.8699C13.4595 39.0034 11.4494 38.2333 9.28991 38.0682C8.16261 37.972 7.02173 38.0545 5.78578 38.0545C5.98951 38.3708 6.16607 38.5909 6.27473 38.8384C6.58711 39.4985 7.07606 39.6361 7.78232 39.6773C9.01827 39.7323 10.2814 39.8424 11.4494 40.1862C13.3645 40.7638 15.2252 41.5202 17.0995 42.2354C20.9296 43.7207 24.8412 44.3121 28.9157 43.6382C31.5642 43.1981 34.0633 42.3042 36.4673 41.1214C39.1701 39.8011 41.9 38.5496 44.888 38.0407C45.0103 38.0132 45.1868 37.9582 45.2276 37.8619C45.635 37.0505 46.0153 36.2253 46.4092 35.4002C46.3685 35.3451 46.3141 35.2764 46.2734 35.2214C45.3227 35.4827 44.3448 35.7165 43.2718 36.0053ZM23.9448 48.0254C26.145 48.1217 28.3181 47.9841 30.4777 47.5578C33.8324 46.9114 36.9562 45.6049 39.9442 44.0095C41.1394 43.3769 42.0358 42.1666 43.0681 41.2177C43.0002 41.1076 42.9187 40.9976 42.8508 40.8876C40.8135 41.7953 38.7626 42.6617 36.7525 43.6107C31.1024 46.2925 25.2486 47.159 19.1775 45.4123C16.9908 44.7797 14.9128 43.8032 12.7669 43.0606C11.5309 42.6342 10.2406 42.3592 8.97752 42.0291C8.95036 42.1116 8.90962 42.2079 8.88245 42.2904C9.76528 43.0743 10.5123 43.9683 11.6667 44.4496C15.5919 46.0862 19.5035 47.7503 23.9448 48.0254Z" fill="#171F20"/>
<path d="M29.1739 30.958C29.1603 30.8479 29.1603 30.9167 29.0516 30.2978C28.9702 29.8302 28.9022 29.4451 28.8615 29.1838C28.9566 29.0738 29.0381 29.005 29.1603 28.9363C29.269 28.895 29.3233 28.84 29.4319 28.785C31.5643 27.5472 33.1262 25.8831 33.8325 23.5038C32.2706 25.1404 30.5049 26.4745 28.4676 27.4784C28.2503 27.0108 28.0602 26.6258 27.8836 26.2269C27.8564 26.1719 27.8429 26.1032 27.8293 26.0344C31.347 23.3388 33.2756 20.712 32.9361 19.0341C31.4964 21.4134 29.5134 23.16 27.0687 24.3978C27.0144 24.3428 26.9872 24.329 26.9736 24.2603C29.1875 18.4978 28.1688 13.1754 24.9907 7.97673C25.1672 10.8511 26.3896 13.4367 26.376 16.091C24.8413 14.8945 23.3065 13.6842 21.7718 12.474C22.1385 13.9318 23.0213 14.9632 23.9584 15.9535C24.7054 16.7511 25.4117 17.5763 26.1315 18.4015C26.2538 18.5528 26.3896 18.7591 26.376 18.9379C26.3081 20.3407 26.1587 21.7297 25.4796 23.105C23.4287 20.6432 20.5901 19.5017 18.0232 17.9476C18.9603 19.708 20.3728 20.9595 21.8668 22.1423C24.9228 24.5353 27.2453 27.3684 27.2588 31.6043C27.1909 32.347 27.1366 33.0209 27.0823 33.8736C26.7291 33.3235 26.4983 32.9659 26.2674 32.567C24.9499 31.2193 23.7547 29.7614 22.3014 28.6337C20.7803 27.4372 19.0146 26.557 17.3305 25.5118C17.2626 25.5118 17.2354 25.5255 17.1947 25.5255C17.2218 25.5668 17.2354 25.608 17.2626 25.7043C17.996 27.1071 19.0418 28.1661 20.2098 29.1013C21.8668 30.4078 23.4967 31.7281 24.719 33.5573C25.0178 34.1074 25.2895 34.6162 25.5611 35.1251C25.6698 35.5102 25.7784 35.8953 25.9006 36.3491C25.3302 36.3491 24.8277 36.3491 24.2708 36.3629C23.3201 36.1428 22.3694 36.0328 21.5544 35.634C20.5086 35.1251 19.5172 34.465 18.6343 33.7085C17.1675 32.4845 16.176 30.8342 15.5105 29.06C15.0759 27.9185 14.9672 26.667 14.6956 25.4017C14.6413 23.5038 14.7092 21.6747 15.1302 19.818C15.2117 19.5017 15.3068 19.2404 15.4154 18.8966C15.6192 18.2915 15.7821 17.7688 15.9587 17.2462C16.0945 16.9574 16.2168 16.6686 16.3933 16.2973C16.4748 16.1185 16.5291 16.0085 16.5699 15.8984C16.76 15.5546 16.9502 15.197 17.1811 14.7845C17.2761 14.5919 17.3305 14.4681 17.3984 14.3444C19.1233 11.5525 21.2828 9.14573 23.8498 7.00027C24.0128 6.84899 24.1214 6.75272 24.2165 6.65645C24.298 6.60143 24.3931 6.54642 24.5289 6.45015C24.6511 6.34013 24.7326 6.27136 24.8005 6.2026C25.2623 5.72124 25.6562 5.83127 26.1587 6.24386C29.9752 9.35203 33.1941 12.914 34.9869 17.6176C36.0192 20.3407 36.4674 23.1463 36.0599 26.1307C35.6524 27.5335 35.2314 28.8675 34.8104 30.2703C33.8596 32.2095 32.4471 33.681 30.7901 34.9051C30.0975 35.4139 29.201 35.6202 28.3454 35.9778C28.6034 34.795 29.0381 32.8284 29.0381 32.8284C29.0516 32.8284 29.2825 31.9069 29.1739 30.958Z" fill="#171F20"/>
</g>
<defs>
<clipPath id="clip0_2042_449">
<rect width="51" height="52" fill="white"/>
</clipPath>
</defs>
</svg>
