<svg width="202" height="269" viewBox="0 0 202 269" fill="none" xmlns="http://www.w3.org/2000/svg">
<path d="M199.5 100.875C199.5 111.862 195.801 125.218 189.659 139.749C183.534 154.239 175.068 169.698 165.726 184.833C147.045 215.099 124.986 243.876 111.518 260.709C106.049 267.502 95.9512 267.502 90.4817 260.709C77.0144 243.876 54.955 215.099 36.2741 184.833C26.9324 169.698 18.4655 154.239 12.3411 139.749C6.19916 125.218 2.5 111.862 2.5 100.875C2.5 46.5672 46.6174 2.5 101 2.5C155.383 2.5 199.5 46.5672 199.5 100.875Z" fill="#476930" stroke="black" stroke-width="5"/>
<g clip-path="url(#clip0_0_1)">
<path d="M151.731 104.153C151.005 107.803 150.574 111.453 149.472 114.886C148.315 118.454 146.836 122.023 144.926 125.237C142.182 129.869 138.793 134.036 134.678 137.605C131.397 140.438 127.873 142.89 124.054 144.824C121.229 146.241 118.351 147.63 115.124 148.148C112.622 148.556 110.201 149.591 107.727 149.809C103.961 150.109 100.142 149.973 96.3492 149.945C94.816 149.918 93.2291 149.837 91.7228 149.482C89.0599 148.856 86.3971 148.12 83.8149 147.221C82.2011 146.677 80.7217 145.75 79.2155 144.933C77.3327 143.898 75.396 142.89 73.6208 141.691C71.5766 140.302 69.4786 138.885 67.7034 137.169C65.1481 134.745 62.5121 132.266 60.5486 129.378C58.1279 125.782 56.1643 121.832 54.4429 117.828C52.2642 112.815 51.3497 107.476 51.0807 101.946C50.758 95.3536 51.3497 88.9518 53.6629 82.8225C55.0884 79.0632 57.052 75.4946 58.9617 71.9259C61.0328 68.0032 64.3143 65.0338 67.2461 61.8466C68.7255 60.2121 70.9311 59.2859 72.6794 57.8966C75.6919 55.5266 79.0541 53.8648 82.5508 52.421C87.0695 50.5414 91.7228 49.1793 96.5912 49.0431C100.464 48.9341 104.365 49.1521 108.238 49.4517C114.424 49.9148 120.127 52.0124 125.56 54.9545C129.272 56.9431 132.688 59.3404 135.7 62.3097C137.153 63.7535 138.793 65.0338 140.138 66.5866C141.349 67.9759 142.344 69.5832 143.285 71.1632C144.738 73.5604 146.217 75.9849 147.481 78.4911C149.579 82.6318 150.79 87.0722 151.408 91.6487C151.839 94.7815 151.866 97.9415 151.973 101.102C152.027 102.055 151.839 103.063 151.731 104.153ZM142.425 111.889C142.075 111.807 141.725 111.698 141.376 111.671C134.893 111.208 128.626 112.053 122.601 114.532C121.122 115.158 119.615 115.73 118.002 116.302C117.948 116.302 117.921 116.302 117.894 116.084C120.772 113.742 122.682 110.718 124.08 107.067C124.565 107.04 125.049 106.986 125.56 106.986C130.186 106.958 134.786 106.958 139.654 106.986C141.779 106.986 143.904 106.986 146.002 106.986C146.621 102.518 146.89 98.2139 146.378 93.7463C146.298 93.1743 146.19 92.6022 146.109 92.0301C145.222 86.4729 143.42 81.2697 140.407 76.3118C139.304 74.7046 138.282 73.0156 137.072 71.4901C132.849 66.1507 127.765 61.8466 121.713 58.8228C113.671 54.791 105.145 53.2383 96.2147 54.2734C93.4442 54.6003 90.7545 55.4721 87.8765 56.0986C87.742 56.1531 87.5806 56.1804 87.2309 56.2621C84.0839 57.7604 80.9369 59.2314 77.6285 60.7569C76.5795 61.4924 75.5305 62.228 74.3739 62.9907C74.347 63.0452 74.347 63.0724 74.1319 63.1814C69.64 66.6683 65.8474 70.809 62.7542 75.8759C60.6293 79.3084 58.9348 82.9315 57.832 87.0449C56.5947 91.4308 55.9492 95.8984 56.245 100.72C56.4064 102.818 56.5678 104.888 56.7292 106.958C59.7148 106.958 62.4315 106.958 65.4171 107.013C69.4786 107.013 73.5401 107.04 77.6285 107.013C78.4354 107.013 78.8658 107.176 79.1886 108.021C80.399 110.936 82.0935 113.496 84.4067 115.648C84.595 115.812 84.6757 116.084 84.595 116.33C83.7611 116.003 82.9542 115.676 82.1204 115.322C74.4277 112.053 66.4661 111.208 58.1279 112.625C58.8272 114.423 59.4996 116.139 60.1452 117.855C60.4948 117.828 60.71 117.801 60.9252 117.801C67.6765 117.011 74.2125 117.937 80.5066 120.552C86.1819 122.895 91.8304 125.156 98.0437 125.701C103.719 126.191 109.152 125.401 114.666 123.44C115.5 123.113 116.307 122.786 117.329 122.432C117.867 122.186 118.432 121.941 119.158 121.642C120.288 121.07 121.391 120.497 122.682 119.898C122.978 119.707 123.274 119.544 123.758 119.353C125.694 118.345 127.631 117.31 129.594 116.357C133.737 114.368 138.094 113.006 142.828 112.298C142.989 112.243 143.124 112.216 143.285 112.162C143.285 112.107 143.258 112.08 143.258 112.025C142.989 111.971 142.801 111.971 142.425 111.889ZM136.695 118.318C135.942 118.618 135.162 118.836 134.436 119.19C130.052 121.342 125.694 123.521 121.31 125.646C115.85 128.289 110.148 129.977 104.096 130.441C96.1878 131.04 88.7641 129.133 81.5556 125.973C77.6554 124.257 73.6746 122.731 69.3979 122.404C67.1654 122.214 64.906 122.377 62.4584 122.377C62.8618 123.004 63.2115 123.44 63.4267 123.93C64.0453 125.237 65.0136 125.51 66.4123 125.592C68.8599 125.701 71.3614 125.919 73.6746 126.6C77.4671 127.744 81.1521 129.242 84.8639 130.659C92.449 133.601 100.196 134.772 108.265 133.437C113.51 132.565 118.459 130.795 123.22 128.452C128.572 125.837 133.979 123.358 139.896 122.35C140.138 122.295 140.488 122.186 140.569 121.996C141.376 120.388 142.129 118.754 142.909 117.12C142.828 117.011 142.72 116.874 142.64 116.765C140.757 117.283 138.82 117.746 136.695 118.318ZM98.4203 142.127C102.778 142.318 107.081 142.045 111.358 141.201C118.002 139.921 124.188 137.333 130.105 134.173C132.472 132.92 134.248 130.522 136.292 128.643C136.157 128.425 135.996 128.207 135.862 127.989C131.827 129.787 127.765 131.503 123.785 133.383C112.595 138.695 101.002 140.411 88.9793 136.951C84.6488 135.698 80.5335 133.764 76.2836 132.293C73.836 131.449 71.2807 130.904 68.7793 130.25C68.7255 130.413 68.6448 130.604 68.591 130.768C70.3393 132.32 71.8187 134.091 74.105 135.044C81.8783 138.286 89.6248 141.582 98.4203 142.127Z" fill="black"/>
<path d="M108.776 108.321C108.749 108.103 108.749 108.239 108.534 107.013C108.372 106.087 108.238 105.324 108.157 104.806C108.345 104.588 108.507 104.452 108.749 104.316C108.964 104.234 109.072 104.125 109.287 104.016C113.51 101.565 116.603 98.2684 118.002 93.5556C114.908 96.7974 111.412 99.4398 107.377 101.428C106.947 100.502 106.57 99.7395 106.22 98.9495C106.167 98.8405 106.14 98.7043 106.113 98.5681C113.079 93.2287 116.899 88.0256 116.226 84.7022C113.375 89.4149 109.448 92.8746 104.607 95.3263C104.499 95.2174 104.445 95.1901 104.418 95.0539C108.803 83.6398 106.785 73.0973 100.491 62.8C100.841 68.4935 103.262 73.6149 103.235 78.8725C100.195 76.5025 97.156 74.1052 94.1166 71.708C94.8428 74.5956 96.5912 76.6387 98.4471 78.6001C99.9265 80.1801 101.325 81.8146 102.751 83.4491C102.993 83.7487 103.262 84.1573 103.235 84.5115C103.1 87.2901 102.804 90.0415 101.46 92.7656C97.3981 87.8894 91.7765 85.6284 86.6929 82.5501C88.5488 86.037 91.3462 88.516 94.3049 90.8587C100.357 95.5988 104.956 101.21 104.983 109.601C104.849 111.072 104.741 112.407 104.634 114.096C103.934 113.006 103.477 112.298 103.02 111.508C100.411 108.838 98.0436 105.951 95.1656 103.717C92.1531 101.347 88.6564 99.6033 85.3211 97.5329C85.1866 97.5329 85.1328 97.5601 85.0522 97.5601C85.1059 97.6419 85.1328 97.7236 85.1866 97.9143C86.6391 100.693 88.7102 102.791 91.0234 104.643C94.3049 107.231 97.5326 109.846 99.9534 113.469C100.545 114.559 101.083 115.567 101.621 116.575C101.836 117.337 102.051 118.1 102.293 118.999C101.164 118.999 100.169 118.999 99.0657 119.026C97.1829 118.591 95.3001 118.373 93.6862 117.583C91.6151 116.575 89.6516 115.267 87.9033 113.769C84.9984 111.344 83.0348 108.075 81.7169 104.561C80.8561 102.3 80.641 99.8212 80.103 97.315C79.9954 93.5556 80.1299 89.9325 80.9637 86.2549C81.1251 85.6284 81.3134 85.1108 81.5286 84.4298C81.932 83.2311 82.2548 82.196 82.6045 81.1608C82.8735 80.5887 83.1155 80.0166 83.4652 79.2811C83.6266 78.927 83.7342 78.709 83.8149 78.4911C84.1914 77.8101 84.568 77.1018 85.0253 76.2846C85.2135 75.9032 85.3211 75.658 85.4556 75.4128C88.8716 69.8828 93.1483 65.1156 98.2319 60.8659C98.5547 60.5662 98.7699 60.3755 98.9581 60.1848C99.1195 60.0759 99.3078 59.9669 99.5768 59.7762C99.8189 59.5583 99.9803 59.4221 100.115 59.2859C101.029 58.3324 101.809 58.5504 102.804 59.3676C110.363 65.5242 116.737 72.5797 120.288 81.8963C122.332 87.2901 123.22 92.8474 122.413 98.7588C121.606 101.537 120.772 104.18 119.938 106.958C118.055 110.799 115.258 113.714 111.977 116.139C110.605 117.147 108.83 117.555 107.135 118.264C107.646 115.921 108.507 112.025 108.507 112.025C108.534 112.025 108.991 110.2 108.776 108.321Z" fill="black"/>
</g>
<defs>
<clipPath id="clip0_0_1">
<rect width="101" height="103" fill="white" transform="translate(51 47)"/>
</clipPath>
</defs>
</svg>
