<svg width="41" height="35" viewBox="0 0 41 35" fill="none" xmlns="http://www.w3.org/2000/svg">
<path d="M0.3125 4.125C0.3125 1.99219 2.03516 0.1875 4.25 0.1875C6.38281 0.1875 8.1875 1.99219 8.1875 4.125C8.1875 6.33984 6.38281 8.0625 4.25 8.0625C2.03516 8.0625 0.3125 6.33984 0.3125 4.125ZM38.375 1.5C39.7695 1.5 41 2.73047 41 4.125C41 5.60156 39.7695 6.75 38.375 6.75H14.75C13.2734 6.75 12.125 5.60156 12.125 4.125C12.125 2.73047 13.2734 1.5 14.75 1.5H38.375ZM38.375 14.625C39.7695 14.625 41 15.8555 41 17.25C41 18.7266 39.7695 19.875 38.375 19.875H14.75C13.2734 19.875 12.125 18.7266 12.125 17.25C12.125 15.8555 13.2734 14.625 14.75 14.625H38.375ZM38.375 27.75C39.7695 27.75 41 28.9805 41 30.375C41 31.8516 39.7695 33 38.375 33H14.75C13.2734 33 12.125 31.8516 12.125 30.375C12.125 28.9805 13.2734 27.75 14.75 27.75H38.375ZM0.3125 30.375C0.3125 28.2422 2.03516 26.4375 4.25 26.4375C6.38281 26.4375 8.1875 28.2422 8.1875 30.375C8.1875 32.5898 6.38281 34.3125 4.25 34.3125C2.03516 34.3125 0.3125 32.5898 0.3125 30.375ZM8.1875 17.25C8.1875 19.4648 6.38281 21.1875 4.25 21.1875C2.03516 21.1875 0.3125 19.4648 0.3125 17.25C0.3125 15.1172 2.03516 13.3125 4.25 13.3125C6.38281 13.3125 8.1875 15.1172 8.1875 17.25Z" fill="black"/>
</svg>
