<svg width="55" height="49" viewBox="0 0 55 49" fill="none" xmlns="http://www.w3.org/2000/svg">
<path d="M50.4167 15.3125V39.8125C50.4167 40.6547 49.7292 41.3438 48.8889 41.3438H30.5556C30.5556 37.1137 27.1372 33.6875 22.9167 33.6875H16.8056C12.5851 33.6875 9.16667 37.1137 9.16667 41.3438H6.11111C5.27083 41.3438 4.58333 40.6547 4.58333 39.8125V15.3125H50.4167ZM6.11111 3.0625C2.74045 3.0625 0 5.80918 0 9.1875V39.8125C0 43.1908 2.74045 45.9375 6.11111 45.9375H48.8889C52.2595 45.9375 55 43.1908 55 39.8125V9.1875C55 5.80918 52.2595 3.0625 48.8889 3.0625H6.11111ZM25.9722 24.5C25.9722 22.8755 25.3284 21.3176 24.1823 20.169C23.0363 19.0203 21.4819 18.375 19.8611 18.375C18.2403 18.375 16.686 19.0203 15.5399 20.169C14.3938 21.3176 13.75 22.8755 13.75 24.5C13.75 26.1245 14.3938 27.6824 15.5399 28.831C16.686 29.9797 18.2403 30.625 19.8611 30.625C21.4819 30.625 23.0363 29.9797 24.1823 28.831C25.3284 27.6824 25.9722 26.1245 25.9722 24.5ZM35.9028 19.9062C34.6328 19.9062 33.6111 20.9303 33.6111 22.2031C33.6111 23.476 34.6328 24.5 35.9028 24.5H43.5417C44.8116 24.5 45.8333 23.476 45.8333 22.2031C45.8333 20.9303 44.8116 19.9062 43.5417 19.9062H35.9028ZM35.9028 29.0938C34.6328 29.0938 33.6111 30.1178 33.6111 31.3906C33.6111 32.6635 34.6328 33.6875 35.9028 33.6875H43.5417C44.8116 33.6875 45.8333 32.6635 45.8333 31.3906C45.8333 30.1178 44.8116 29.0938 43.5417 29.0938H35.9028Z" fill="black"/>
</svg>
