<svg width="58" height="58" viewBox="0 0 58 58" fill="none" xmlns="http://www.w3.org/2000/svg">
<path d="M7.25 52.5625H12.6875V58H7.25C3.25117 58 0 54.7488 0 50.75V7.25C0 3.25117 3.25117 0 7.25 0H25.998C27.9238 0 29.7703 0.758984 31.1297 2.11836L41.3816 12.3703C42.741 13.7297 43.5 15.5762 43.5 17.502V34.4375H38.0625V18.125H29C26.9949 18.125 25.375 16.5051 25.375 14.5V5.4375H7.25C6.25312 5.4375 5.4375 6.25312 5.4375 7.25V50.75C5.4375 51.7469 6.25312 52.5625 7.25 52.5625ZM19.9375 39.875H23.5625C27.0629 39.875 29.9062 42.7184 29.9062 46.2188C29.9062 49.7191 27.0629 52.5625 23.5625 52.5625H21.75V56.1875C21.75 57.1844 20.9344 58 19.9375 58C18.9406 58 18.125 57.1844 18.125 56.1875V50.75V41.6875C18.125 40.6906 18.9406 39.875 19.9375 39.875ZM23.5625 48.9375C25.0691 48.9375 26.2812 47.7254 26.2812 46.2188C26.2812 44.7121 25.0691 43.5 23.5625 43.5H21.75V48.9375H23.5625ZM34.4375 39.875H38.0625C41.0645 39.875 43.5 42.3105 43.5 45.3125V52.5625C43.5 55.5645 41.0645 58 38.0625 58H34.4375C33.4406 58 32.625 57.1844 32.625 56.1875V41.6875C32.625 40.6906 33.4406 39.875 34.4375 39.875ZM38.0625 54.375C39.0594 54.375 39.875 53.5594 39.875 52.5625V45.3125C39.875 44.3156 39.0594 43.5 38.0625 43.5H36.25V54.375H38.0625ZM47.125 41.6875C47.125 40.6906 47.9406 39.875 48.9375 39.875H54.375C55.3719 39.875 56.1875 40.6906 56.1875 41.6875C56.1875 42.6844 55.3719 43.5 54.375 43.5H50.75V47.125H54.375C55.3719 47.125 56.1875 47.9406 56.1875 48.9375C56.1875 49.9344 55.3719 50.75 54.375 50.75H50.75V56.1875C50.75 57.1844 49.9344 58 48.9375 58C47.9406 58 47.125 57.1844 47.125 56.1875V48.9375V41.6875Z" fill="black"/>
</svg>
