<svg width="32" height="27" viewBox="0 0 32 27" fill="none" xmlns="http://www.w3.org/2000/svg">
<path d="M0 2.25C0 1.05469 0.984375 0 2.25 0H29.25C30.4453 0 31.5 1.05469 31.5 2.25C31.5 3.51562 30.4453 4.5 29.25 4.5H2.25C0.984375 4.5 0 3.51562 0 2.25ZM0 13.5C0 12.3047 0.984375 11.25 2.25 11.25H29.25C30.4453 11.25 31.5 12.3047 31.5 13.5C31.5 14.7656 30.4453 15.75 29.25 15.75H2.25C0.984375 15.75 0 14.7656 0 13.5ZM29.25 27H2.25C0.984375 27 0 26.0156 0 24.75C0 23.5547 0.984375 22.5 2.25 22.5H29.25C30.4453 22.5 31.5 23.5547 31.5 24.75C31.5 26.0156 30.4453 27 29.25 27Z" fill="#476930"/>
</svg>
