<svg id="Capa_1" data-name="Capa 1" xmlns="http://www.w3.org/2000/svg" viewBox="0 0 1025.01 233.7"><defs><style>.cls-1{fill:#171f20;}.cls-2{fill:#fdfdfe;}.cls-3{fill:#fafaf8;}.cls-4{fill:#f2f3f0;}.cls-5{fill:#fbfbfb;}.cls-6{fill:#f9f9f7;}.cls-7{fill:#edefec;}.cls-8{fill:#e9ebe8;}.cls-9{fill:#f4f6f3;}.cls-10{fill:#f4f5f1;}.cls-11{fill:#f6f7f4;}.cls-12{fill:#fafafa;}.cls-13{fill:#fefefc;}.cls-14{fill:#f5f6f5;}.cls-15{fill:#f7f9f9;}.cls-16{fill:#f6f8f7;}</style></defs><path class="cls-1" d="M285.41,163.2c-1.7,8.44-2.71,16.89-5.3,24.84a118,118,0,0,1-10.65,24,115.72,115.72,0,0,1-24,28.62,123.84,123.84,0,0,1-24.9,16.71c-6.62,3.28-13.37,6.49-20.93,7.69-5.86.95-11.54,3.34-17.34,3.85-8.82.69-17.78.37-26.66.31a52.06,52.06,0,0,1-10.85-1.07,187.94,187.94,0,0,1-18.53-5.23c-3.78-1.26-7.25-3.41-10.78-5.3-4.42-2.39-9-4.73-13.12-7.5-4.79-3.22-9.7-6.49-13.86-10.47-6-5.61-12.17-11.34-16.77-18a161.37,161.37,0,0,1-14.31-26.73c-5.11-11.6-7.25-24-7.89-36.75-.75-15.26.64-30.07,6.06-44.26,3.34-8.7,7.94-17,12.42-25.21,4.85-9.08,12.54-16,19.41-23.33,3.47-3.78,8.64-5.92,12.74-9.14,7.06-5.48,14.94-9.33,23.13-12.67,10.6-4.35,21.5-7.5,32.91-7.82a262.16,262.16,0,0,1,27.3,1c14.5,1.07,27.87,5.92,40.6,12.73a102.26,102.26,0,0,1,23.77,17c3.4,3.34,7.25,6.31,10.4,9.9a73,73,0,0,1,7.38,10.59c3.4,5.55,6.87,11.16,9.83,17a94,94,0,0,1,9.2,30.45c1,7.25,1.08,14.56,1.33,21.88a48.86,48.86,0,0,1-.57,7.06M263.6,181.1a16.51,16.51,0,0,0-2.46-.5,96.89,96.89,0,0,0-44,6.62c-3.47,1.45-7,2.77-10.79,4.09-.12,0-.18,0-.25-.5,6.75-5.42,11.22-12.42,14.5-20.87,1.14-.06,2.27-.19,3.47-.19,10.84-.06,21.62-.06,33,0H272c1.45-10.34,2.08-20.3.88-30.64-.18-1.32-.44-2.64-.63-4a98.06,98.06,0,0,0-13.36-36.37c-2.59-3.72-5-7.63-7.82-11.16a106.37,106.37,0,0,0-95.76-39.84c-6.49.75-12.8,2.77-19.54,4.22a12.25,12.25,0,0,1-1.52.38c-7.37,3.46-14.75,6.87-22.5,10.4-2.46,1.7-4.92,3.4-7.63,5.17-.06.13-.06.19-.57.44A108.23,108.23,0,0,0,76.87,97.76a94.42,94.42,0,0,0-11.54,25.85,92.52,92.52,0,0,0-3.72,31.64c.38,4.86.76,9.65,1.13,14.44,7,0,13.37,0,20.37.13,9.52,0,19,.06,28.62,0,1.89,0,2.9.37,3.65,2.33a49.8,49.8,0,0,0,12.23,17.65,1.47,1.47,0,0,1,.45,1.58c-2-.76-3.85-1.52-5.8-2.34-18-7.56-36.69-9.52-56.24-6.24,1.64,4.16,3.22,8.14,4.73,12.11.82-.07,1.32-.13,1.83-.13a91.46,91.46,0,0,1,45.89,6.37c13.31,5.42,26.54,10.65,41.11,11.91a91.76,91.76,0,0,0,39-5.23c2-.76,3.84-1.51,6.24-2.33,1.26-.57,2.58-1.14,4.29-1.83,2.64-1.32,5.23-2.65,8.25-4a13.42,13.42,0,0,1,2.53-1.27c4.54-2.33,9.07-4.72,13.68-6.93a108.74,108.74,0,0,1,31-9.39c.38-.13.7-.19,1.08-.32,0-.12-.07-.19-.07-.31-.63-.13-1.07-.13-1.95-.32M250.17,196c-1.77.69-3.59,1.2-5.3,2-10.27,5-20.48,10-30.76,14.94A112.63,112.63,0,0,1,173.76,224c-18.53,1.39-35.93-3-52.83-10.34-9.14-4-18.47-7.5-28.49-8.25-5.24-.45-10.53-.07-16.27-.07a27.86,27.86,0,0,1,2.27,3.6c1.45,3,3.72,3.65,7,3.84a73.05,73.05,0,0,1,17,2.33c8.89,2.65,17.53,6.12,26.23,9.4,17.77,6.81,35.93,9.52,54.84,6.43a127.31,127.31,0,0,0,35.06-11.54c12.54-6.05,25.21-11.79,39.08-14.12.57-.13,1.39-.38,1.58-.82,1.89-3.72,3.65-7.5,5.48-11.28-.19-.26-.44-.57-.63-.82-4.41,1.19-9,2.26-13.93,3.59m-89.71,55.1a128.38,128.38,0,0,0,30.32-2.15c15.57-3,30.07-9,43.94-16.26,5.55-2.9,9.71-8.45,14.5-12.8-.31-.5-.69-1-1-1.51-9.46,4.16-19,8.13-28.31,12.48-26.23,12.29-53.4,16.27-81.58,8.26-10.15-2.9-19.79-7.38-29.75-10.78-5.74-1.95-11.73-3.22-17.59-4.73-.13.38-.32.82-.44,1.2,4.09,3.59,7.56,7.69,12.92,9.9C121.69,242.19,139.84,249.82,160.46,251.08Z" transform="translate(-49.31 -35.6)"/><path class="cls-2" d="M136,52c6.37-1.45,12.73-3.47,19.16-4.22a106.38,106.38,0,0,1,95.77,39.84A94.76,94.76,0,0,1,258.49,99a25.68,25.68,0,0,1-3.72.19c-8.82.06-8.76-1.39-9.14,7.94-.06,2.15-.88,3.41-3.15,3.41-2,0-3.22.94-3.15,3,0,1.83-.89,2.4-2.59,2.78-1.2.25-2.9,1.76-2.9,2.71-.06,2.9-1.32,3.4-3.91,3.53-1.7.06-4.16.75-4.79,2a45.07,45.07,0,0,0-3.4,10c-1.07,4.6-1.64,9.39-2.65,14-.19.89-1.51,1.52-2.33,2,2-13.62-.13-26.48-5-39-8.33-21.56-23.27-37.89-41-52.14-2.33-1.83-4.16-2.39-6.37-.38a3.84,3.84,0,0,0-.88-.88c-.13.69-.32,1.39-.51,2.21a2,2,0,0,1-1.32.69c-1.7-1.07-1.83-1-1.83,1.89A146.23,146.23,0,0,0,130,96.62a6.64,6.64,0,0,0-.95,2.15,31.65,31.65,0,0,1-2.9,5,5.62,5.62,0,0,0-.75,2,29.51,29.51,0,0,1-2.09,4.17,50,50,0,0,0-3.59,6.3c-.06.19.76.76,1.2,1.39a15.19,15.19,0,0,1-1.32,3.59,3.5,3.5,0,0,0-2,.13c-4.67,2.77-10.53,1.07-12.36-3.28-1.83.12-3.47.19-5.11.31.45-1.38.89-2.77,1.45-4.41-1.13-1.07-2.39-3.21-4-3.59-4.73-1.07-4.6-5.68-6.68-8.51-1.14-1.52-1.39-2.9-3.6-2.84a16.11,16.11,0,0,1-3.4-.57C81,97.88,80.65,97,82.35,94.67c3.09-4.29,6.12-8.64,9.46-12.8,1.57-2,3.91-3.28,5.54-5.23,2.27-2.71,5.8-4.54,6.43-8.51.07-.13.07-.19.38-.13a5.2,5.2,0,0,0,2.4.07,9.42,9.42,0,0,0,3.09-2A23.44,23.44,0,0,0,112,62.58c7.38-3.47,14.75-6.87,22.44-10.21A3,3,0,0,0,136,52m2.52,18.66c-1.32-2.46-9.64-3.22-11.09-1a2.15,2.15,0,0,0-.26.88c-.25,2.21-.5,4.35-.63,6.56-.06,1.83.38,3.28,2.78,3.34,2.14.06,3.53-.57,3.46-2.9-.06-1.89.95-2.65,2.65-2.77C137.76,74.5,138.65,73.3,138.52,70.65Z" transform="translate(-49.31 -35.6)"/><path class="cls-3" d="M216.88,150.9c.82-.75,2.08-1.38,2.27-2.27,1-4.66,1.58-9.39,2.65-14a46.14,46.14,0,0,1,3.4-10c.64-1.2,3.16-1.89,4.8-2,2.58-.13,3.78-.7,3.9-3.53,0-1,1.77-2.46,2.9-2.71,1.77-.38,2.65-1,2.59-2.78,0-2.08,1.13-3,3.15-3,2.27,0,3-1.33,3.15-3.41.38-9.33.32-7.88,9.14-7.94h3.72a90.69,90.69,0,0,1,13.56,35.93,22,22,0,0,1,.38,4.16,25.81,25.81,0,0,1-3.41-4.09c-.44,1.26-.94,2.33-1.26,3.53-.63,2.27-.38,5.35-1.83,6.74-2.2,2.21-1.95,4.41-2,6.81-.07,4.29-1.45,5.93-5.8,6.12-2.4.12-4,.94-4.48,2.64,1.07,1.64,2.14,2.71,2.52,4a18.47,18.47,0,0,1,.13,4.6c-10.85.06-21.63.06-32.47.13-1.13,0-2.27.12-3.78.12s-2.84-.25-4.1-.25a44.28,44.28,0,0,1-5-.13C213,163.2,214.93,157.08,216.88,150.9Z" transform="translate(-49.31 -35.6)"/><path class="cls-4" d="M198,207.77a90,90,0,0,1-38.52,5.17c-14.56-1.26-27.8-6.5-41.1-11.92a91.6,91.6,0,0,0-45.9-6.37c-.5.07-1,.07-1.83.13-1.57-4-3.09-7.94-4.72-12.1,19.54-3.28,38.2-1.33,56.23,6.24a59.89,59.89,0,0,0,6.3,2.33c1.2.06,2.4-.13,2.59.25,1.64,3.15,4.85,1.45,7.06,2.46,3.47,1.58,6.75,3.47,10.78,3.28.32,0,.63.5.95.76,3.59,2.52,7.5.69,11.22.82.25,0,.56-.76,1.13-1.27,2.59-.06,4.92-.06,7.57-.06-.57-2.08-1.07-3.84-1.45-5.74.44-.69,1.07-1.19,1.07-1.7.06-2.39,1.57-2.77,3.4-2.52,3.47.51,5.42-1,6.69-4.16.75-1.83,2.08-3.59,4.6-1.89-1.07,5-2.21,9.64-3.47,14.5-.82,1-1.51,1.83-2.27,2.65a31.25,31.25,0,0,0,2.84,2.08c1.07.56,2.39.75,3.34,1.45a4.1,4.1,0,0,0,5.61.06c.69-.5,1.77-.57,3.22-1-1.33,1.77-2.15,2.84-2.9,3.85,1.38.44,2.83.82,4.22,1.32C195.76,206.82,196.9,207.26,198,207.77Z" transform="translate(-49.31 -35.6)"/><path class="cls-5" d="M103.66,68.32c-.38,3.91-3.91,5.73-6.24,8.45-1.64,2-4,3.27-5.55,5.23-3.28,4.16-6.37,8.45-9.46,12.8-1.7,2.33-1.26,3.21,1.45,3.78a13.09,13.09,0,0,0,3.41.57c2.14-.07,2.46,1.32,3.59,2.83,2.14,2.84,2,7.44,6.68,8.51,1.64.38,2.9,2.52,4,3.6-.57,1.7-1,3-1.45,4.41,1.64-.13,3.28-.19,5.1-.32,1.83,4.35,7.7,6.06,12.36,3.28a2.32,2.32,0,0,1,2,.13c-1.83,8.7-2.15,17.08-2.21,25.53-1.83-.13-2.84.25-2.84,2.21a37.94,37.94,0,0,1-.63,5.92c-.44,3.22-3.08,4.16-5.73,2.4-2.08-1.39-4.35-2.52-6.5-3.78-.25-.13-.44-.44-.69-.57-2.71-1.77-5.36-3.47-8.13-5.17a2.39,2.39,0,0,0-1.51-.25,4.55,4.55,0,0,1-4.86-4c-.25-3.22-2.33-4.73-4.22-6.56-1.64-1.58-3.28-3.15-4.92-4.67a5,5,0,0,1,.95-.12c.06-1.52.88-3.78.12-4.42-2.46-2.26-3.59-7.12-8.76-5.61-.82-.88-1.45-1.57-1.64-1.7.94-2.58,1.45-4.6,2.33-6.49,2-4.1,4.29-8.13,6.18-12.29.57-1.33.38-3,.5-4.48A103.34,103.34,0,0,1,103.66,68.32Z" transform="translate(-49.31 -35.6)"/><path class="cls-6" d="M69.8,122.53c5-1.7,6.12,3.16,8.64,5.43.69.63-.06,2.9-.12,4.41a5.25,5.25,0,0,1-.95.12c1.64,1.58,3.28,3.09,4.92,4.67,1.89,1.83,4,3.34,4.22,6.56a4.55,4.55,0,0,0,4.86,4,2.46,2.46,0,0,1,1.51.25c2.71,1.7,5.42,3.47,8.13,5.17a5.77,5.77,0,0,0,.69.57c2.15,1.26,4.42,2.39,6.5,3.78,2.65,1.83,5.23.82,5.73-2.4a44.47,44.47,0,0,0,.63-5.92c0-2,1-2.33,2.9-2,1.52,5.8,2,11.54,4,16.77,3.09,8.14,7.69,15.64,14.5,21.31a70.52,70.52,0,0,0,13.55,8.83c3.79,1.83,8.2,2.27,12.3,3.34-.26.44-.57,1.2-.82,1.2-3.79-.13-7.69,1.7-11.22-.82-.32-.26-.63-.76-.95-.76-4,.25-7.25-1.64-10.78-3.28-2.21-1-5.42.7-7.06-2.46-.19-.37-1.39-.19-2.33-.25-.57-.5-.76-1.13-1.2-1.51a49.8,49.8,0,0,1-12.23-17.65c-.82-1.89-1.77-2.34-3.66-2.34-9.52.07-19,0-28.87-.25-.57-1.13-.7-2.08-1.14-2.84-1.13-1.89-2.39-3.71-3.65-5.48a6.42,6.42,0,0,0-2.34-2c-2.27-1-5-1.26-6.87-2.71-2.27-1.7-4.54-1.83-7.06-1.76a83.69,83.69,0,0,1,4-31.34C67.28,123,68.54,122.79,69.8,122.53Z" transform="translate(-49.31 -35.6)"/><path class="cls-7" d="M250.36,195.85c4.79-1.2,9.33-2.33,13.87-3.4l.63.82c-1.83,3.78-3.59,7.56-5.49,11.28-.19.44-1,.7-1.57.82-13.87,2.27-26.54,8.07-39.09,14.12A129.39,129.39,0,0,1,183.66,231c-18.91,3.09-37.13.38-54.85-6.43-8.7-3.34-17.33-6.81-26.22-9.39a73.21,73.21,0,0,0-17-2.34c-3.28-.12-5.62-.75-7-3.84a36,36,0,0,0-2.27-3.59c5.73,0,11-.32,16.26.06,10,.82,19.36,4.29,28.5,8.26,16.83,7.31,34.29,11.66,52.83,10.34A112.7,112.7,0,0,0,214.24,213c10.27-4.92,20.48-10,30.76-14.94A55.87,55.87,0,0,1,250.36,195.85Z" transform="translate(-49.31 -35.6)"/><path class="cls-8" d="M160.14,251c-20.3-1.2-38.45-8.83-56.61-16.33-5.36-2.21-8.89-6.31-12.92-9.9.12-.38.31-.82.44-1.2,5.86,1.58,11.85,2.78,17.59,4.73,10,3.4,19.67,7.88,29.75,10.78,28.18,8,55.36,4,81.58-8.26,9.33-4.35,18.85-8.32,28.31-12.48.31.5.69,1,1,1.51-4.79,4.35-9,9.9-14.5,12.8-13.87,7.25-28.37,13.3-43.94,16.26A134,134,0,0,1,160.14,251Z" transform="translate(-49.31 -35.6)"/><path class="cls-9" d="M198.22,207.7c-1.32-.44-2.39-.94-3.53-1.32-1.38-.5-2.83-.88-4.22-1.32.82-1.07,1.57-2.15,2.9-3.85a15.23,15.23,0,0,0-3.22,1c-2,1.45-3.65,1.39-5.61-.06-.94-.7-2.27-.89-3.34-1.45a31.25,31.25,0,0,1-2.84-2.08,29,29,0,0,1,2.46-2.71c4.1-1.77,8.32-2.72,11.54-5,7.69-5.61,14.31-12.35,18.66-21,1.7-.06,3.4-.13,5-.13a17.56,17.56,0,0,1,3.91.44A45.19,45.19,0,0,1,206,191.25a1.59,1.59,0,0,0,.25.82c.13-.19.25-.44.38-.63,3.47-1.39,7-2.77,10.47-4.16,14.12-5.8,28.87-7.69,44-6.62a10.46,10.46,0,0,1,2.71.69.81.81,0,0,1,.19.51,110.44,110.44,0,0,0-30.58,9.45c-4.6,2.21-9.14,4.61-14.06,6.81a10.52,10.52,0,0,1-.06-3.4c-.57,0-1.51-.19-1.7.06a11.76,11.76,0,0,0-1.77,3.28c-.12.31.63.94,1,1.45-2.64,1.32-5.23,2.65-8.07,3.84-.12-2.2-1.38-3-3-2.45-.76.25-1.2,1.7-1.58,2.71a4.85,4.85,0,0,0,.06,1.89c-2,.69-3.9,1.45-6.05,2.2m4.23-13.86c-.19.37-.45.75-.63,1.19l.44.32a12,12,0,0,1,.82-1.58c-.13-.06-.19-.06-.63.07m2.64-1.52C205.09,192.39,205.16,192.39,205.09,192.32Z" transform="translate(-49.31 -35.6)"/><path class="cls-10" d="M256.73,169.75c-.32-1.57,0-3.21-.45-4.66s-1.51-2.4-2.52-4c.51-1.7,2.08-2.52,4.48-2.64,4.35-.19,5.74-1.83,5.8-6.12,0-2.46-.19-4.66,2-6.81,1.45-1.45,1.19-4.47,1.82-6.74.32-1.14.82-2.27,1.27-3.53,1.19,1.63,2.14,3,3.34,4.35,1.51,10,.88,19.85-.57,30.26C267,169.82,262,169.82,256.73,169.75Z" transform="translate(-49.31 -35.6)"/><path class="cls-11" d="M61.61,155c2.58-.31,4.85-.19,7.12,1.51,1.89,1.45,4.6,1.71,6.87,2.71a7.16,7.16,0,0,1,2.34,2,64.53,64.53,0,0,1,3.65,5.49,10.2,10.2,0,0,1,.82,2.77c-6.36.25-12.73.25-19.73.25C62.3,164.9,61.92,160.11,61.61,155Z" transform="translate(-49.31 -35.6)"/><path class="cls-12" d="M69.68,122.41a27,27,0,0,1-4,.82c2.08-9.14,6.11-17.47,11.22-25.6,0,1.33.25,3-.32,4.35-1.89,4.16-4.16,8.13-6.18,12.3a60.59,60.59,0,0,0-2.33,6.49A13.31,13.31,0,0,1,69.68,122.41Z" transform="translate(-49.31 -35.6)"/><path class="cls-4" d="M204.46,205.44a2.74,2.74,0,0,1-.31-1.83c.38-1,.82-2.46,1.57-2.71,1.64-.51,2.84.25,2.78,2.52A31.69,31.69,0,0,1,204.46,205.44Z" transform="translate(-49.31 -35.6)"/><path class="cls-5" d="M111.85,62.71a14.17,14.17,0,0,1-2.08,3.53,9.13,9.13,0,0,1-3.09,2,3.92,3.92,0,0,1-2.2-.12A83.71,83.71,0,0,1,111.85,62.71Z" transform="translate(-49.31 -35.6)"/><path class="cls-4" d="M217,199.51c-.57-.44-1.32-1.07-1.2-1.39a11.64,11.64,0,0,1,1.77-3.28c.19-.31,1.13-.06,1.7-.06a19.66,19.66,0,0,0-.13,3.41A10.5,10.5,0,0,1,217,199.51Z" transform="translate(-49.31 -35.6)"/><path class="cls-5" d="M135.87,51.93a1.46,1.46,0,0,1-1.13.44A2.72,2.72,0,0,1,135.87,51.93Z" transform="translate(-49.31 -35.6)"/><path class="cls-4" d="M264.23,181.86c-.19-.07-.19-.32-.19-.44a5,5,0,0,1,1.39-.13c0,.13.06.19.06.32C265.11,181.67,264.8,181.79,264.23,181.86Z" transform="translate(-49.31 -35.6)"/><path class="cls-4" d="M206.48,191.38a.76.76,0,0,1-.19.63,2.64,2.64,0,0,1-.25-.57C206.1,191.31,206.23,191.38,206.48,191.38Z" transform="translate(-49.31 -35.6)"/><path class="cls-1" d="M191.1,177.44" transform="translate(-49.31 -35.6)"/><path class="cls-1" d="M184.73,172.84c-.06-.5-.06-.19-.57-3-.37-2.15-.69-3.91-.88-5.11a4.9,4.9,0,0,1,1.39-1.14,12.16,12.16,0,0,0,1.26-.69c9.9-5.67,17.15-13.3,20.42-24.21a87.54,87.54,0,0,1-24.9,18.22c-1-2.14-1.89-3.91-2.71-5.73a3.86,3.86,0,0,1-.25-.89c16.33-12.35,25.28-24.39,23.7-32.09A65.25,65.25,0,0,1,175,142.77c-.25-.25-.38-.31-.44-.63,10.27-26.41,5.55-50.81-9.21-74.64.82,13.17,6.5,25,6.43,37.19-7.12-5.48-14.24-11-21.37-16.58,1.71,6.69,5.8,11.41,10.15,16,3.47,3.66,6.75,7.44,10.09,11.22a4,4,0,0,1,1.13,2.46c-.31,6.43-1,12.8-4.16,19.1-9.52-11.28-22.69-16.51-34.61-23.64,4.35,8.07,10.91,13.81,17.84,19.23,14.19,11,25,24,25,43.38-.31,3.4-.57,6.49-.82,10.4-1.64-2.52-2.71-4.16-3.78-6-6.12-6.18-11.66-12.86-18.41-18-7.06-5.49-15.25-9.52-23.07-14.31-.32,0-.44.06-.63.06a2.8,2.8,0,0,1,.31.82c3.41,6.43,8.26,11.28,13.68,15.57,7.69,6,15.26,12,20.93,20.43,1.39,2.52,2.65,4.85,3.91,7.18.51,1.77,1,3.53,1.58,5.61-2.65,0-5,0-7.57.07-4.41-1-8.82-1.52-12.61-3.34a64.54,64.54,0,0,1-13.55-8.83c-6.81-5.61-11.41-13.18-14.5-21.31-2-5.23-2.52-11-3.78-16.77-.25-8.7.06-17.08,2-25.59.37-1.45.81-2.65,1.32-4.23.94-2.77,1.7-5.17,2.52-7.56.63-1.33,1.2-2.65,2-4.35.38-.82.63-1.33.82-1.83.88-1.58,1.76-3.21,2.83-5.11.45-.88.7-1.45,1-2A139.37,139.37,0,0,1,160,63c.76-.69,1.26-1.13,1.7-1.57.38-.26.82-.51,1.45-1s1-.82,1.26-1.13c2.14-2.21,4-1.71,6.31.18,17.71,14.25,32.65,30.58,41,52.14,4.79,12.48,6.88,25.34,5,39-1.89,6.43-3.84,12.55-5.8,19-4.41,8.89-11,15.63-18.66,21.25-3.21,2.33-7.37,3.27-11.34,4.91,1.19-5.42,3.21-14.43,3.21-14.43h0A24.13,24.13,0,0,0,184.73,172.84Z" transform="translate(-49.31 -35.6)"/><path class="cls-13" d="M138.52,70.9c.13,2.4-.76,3.66-3,3.78-1.7.13-2.71.89-2.64,2.78.06,2.33-1.33,3-3.47,2.9-2.33-.06-2.84-1.51-2.77-3.34.12-2.21.37-4.35.63-6.56a2,2,0,0,1,.25-.88C128.88,67.37,137.2,68.13,138.52,70.9Z" transform="translate(-49.31 -35.6)"/><path class="cls-5" d="M123.33,110a62.06,62.06,0,0,1-2.27,7.31c-.57-.25-1.39-.82-1.33-1A58.76,58.76,0,0,1,123.33,110Z" transform="translate(-49.31 -35.6)"/><path class="cls-5" d="M161.85,61.19a5.48,5.48,0,0,1-1.58,1.64C160,60.18,160.08,60.12,161.85,61.19Z" transform="translate(-49.31 -35.6)"/><path class="cls-5" d="M164.56,59.11a3.27,3.27,0,0,1-1.14,1.14,7.85,7.85,0,0,1,.32-2C163.93,58.48,164.24,58.73,164.56,59.11Z" transform="translate(-49.31 -35.6)"/><path class="cls-5" d="M130,96.69a4.63,4.63,0,0,1-.76,1.76A4.26,4.26,0,0,1,130,96.69Z" transform="translate(-49.31 -35.6)"/><path class="cls-5" d="M126.16,103.81a3.18,3.18,0,0,1-.56,1.64A4,4,0,0,1,126.16,103.81Z" transform="translate(-49.31 -35.6)"/><path class="cls-14" d="M184.1,181.48a3.5,3.5,0,0,0-2.77-.38c-.7.32-1.2.69-1.83,2.21-1.26,3.15-3.22,4.66-6.68,4.16-1.83-.25-3.35.12-3.41,2.52,0,.5-.63,1-1.07,1.7a41.81,41.81,0,0,1-3.85-7.06c.26-.82.51-1.32.38-1.76-.94-3-2-5.93-3.28-9.59,1.45.57,2.09.63,2.46,1,2,2,3.91,4.1,5.87,6.12.25.25,1-.07,1.51-.07,1.07,1.64,2.14,3.28,3.72,5.8.31-3.9.5-7,1-10.46,3-1.77,1.7-3.91,1.38-6-.25-1.89-.37-4.29.57-5.74a2.61,2.61,0,0,1,1.39-1.13c1.2-.32,2.65.44,3.78,1.89a31.93,31.93,0,0,1,1.58,9.9A33.38,33.38,0,0,1,184.1,181.48Z" transform="translate(-49.31 -35.6)"/><path class="cls-14" d="M191,177.44" transform="translate(-49.31 -35.6)"/><path class="cls-4" d="M202.89,193.84c-.25.5-.44,1-.7,1.51-.12-.13-.44-.25-.44-.32a5.67,5.67,0,0,1,.82-1.19C202.89,193.77,202.89,193.84,202.89,193.84Z" transform="translate(-49.31 -35.6)"/><path class="cls-4" d="M205.16,192.39Z" transform="translate(-49.31 -35.6)"/><path class="cls-4" d="M202.82,193.77H203C202.89,193.84,202.89,193.77,202.82,193.77Z" transform="translate(-49.31 -35.6)"/><path class="cls-15" d="M183.34,164.58c-1.7-.69-3.53-3.21-5.23-.63-.94,1.45-.82,3.85-.57,5.74.26,2.14,1.64,4.22-1.32,5.74-.38-19.11-11.1-32-25.28-43.06C144,127,137.39,121.21,133.1,113.14c11.91,7.12,25.09,12.36,34.61,23.64,3.15-6.3,3.85-12.67,4.16-19.1a3.92,3.92,0,0,0-1.13-2.46c-3.28-3.78-6.62-7.56-10.09-11.22-4.35-4.54-8.45-9.27-10.15-16,7.12,5.55,14.31,11.1,21.37,16.58.06-12.17-5.61-24-6.43-37.2,14.75,23.77,19.48,48.17,9.08,74.77a8.18,8.18,0,0,0-.44,1c.38-.12.82-.19,1.19-.31,11.16-5.87,20.37-13.87,27-24.78,1.64,7.63-7.38,19.73-23.7,32.09a5.46,5.46,0,0,0,.25.88c.82,1.77,1.7,3.6,2.71,5.74a87.73,87.73,0,0,0,24.9-18.22c-3.28,11-10.59,18.53-20.55,24.15a3.07,3.07,0,0,0-1.32.75A10,10,0,0,0,183.34,164.58Z" transform="translate(-49.31 -35.6)"/><path class="cls-16" d="M171.37,180.16c-.45.25-1.2.5-1.45.31-2-2-3.91-4.1-5.87-6.11-.37-.38-1-.45-2.46-1,1.27,3.72,2.34,6.62,3.28,9.58a2,2,0,0,1-.44,1.51c-5.8-8.07-13.36-14.12-21.05-20.11-5.49-4.22-10.34-9.14-13.56-15.7.19-.44.25-.56.32-.69,7.69,4.67,15.88,8.76,22.94,14.25C159.7,167.36,165.25,174,171.37,180.16Z" transform="translate(-49.31 -35.6)"/><path class="cls-14" d="M184.73,163.51a1.7,1.7,0,0,1,1-.75C185.55,163.07,185.24,163.26,184.73,163.51Z" transform="translate(-49.31 -35.6)"/><path class="cls-16" d="M129.7,148.38c-.26-.06-.32-.25-.45-.44a.91.91,0,0,1,.63-.06C130,148.07,129.88,148.19,129.7,148.38Z" transform="translate(-49.31 -35.6)"/><path class="cls-1" d="M175.15,142.77a1.83,1.83,0,0,1-1,.44,3.75,3.75,0,0,1,.38-.75A.77.77,0,0,1,175.15,142.77Z" transform="translate(-49.31 -35.6)"/><path d="M396.93,152.67l1.8-2.8a82.74,82.74,0,0,1,24.2,3.5q10.2,3.3,15.8,10.6t5.6,19.5q0,12.41-6.1,21.2t-18.1,13.4q-12,4.6-29.8,4.6h-59.8v-14.4l18.6-5.4-3.8,5.8v-112l4.6,6-19.4-5.4V82.87l42.2-1h20.6q14.6,0,24.8,3.7T433.73,97q5.4,7.69,5.4,19.7,0,16.39-10.5,25.3T396.93,152.67Zm-9.2-50.6h-18.2l4.4-4.4v47.4l-4.4-4h13.8a48.36,48.36,0,0,0,13.7-1.8,18.87,18.87,0,0,0,9.7-6.3q3.6-4.5,3.6-12.3,0-7.4-3-11.4a15.69,15.69,0,0,0-8.1-5.6A38.23,38.23,0,0,0,387.73,102.07Zm0,100.2a50.19,50.19,0,0,0,14-1.8,18.64,18.64,0,0,0,9.8-6.4q3.6-4.6,3.6-12.6,0-7.8-3.2-12.3a16.92,16.92,0,0,0-8.2-6.3,32.25,32.25,0,0,0-11-1.8h-23.2l4.4-5v50.8l-4.4-4.6Z" transform="translate(-49.31 -35.6)"/><path d="M496.93,206.27l-2-2.4,15.4,4.4v14.4h-54.8v-14.4l15.4-4.4-2,2.4v-73l1.8,1.8-15.2-4.2v-14.4l41.4-1.4Zm-14.8-106.8q-7.39,0-11.9-4.2t-4.5-12q0-8.4,4.7-12.5a17.46,17.46,0,0,1,11.9-4.1,16.8,16.8,0,0,1,11.6,4.1q4.6,4.1,4.6,12.3t-4.7,12.3A17.16,17.16,0,0,1,482.13,99.47Z" transform="translate(-49.31 -35.6)"/><path d="M572.53,113.47q23.6,0,36.8,14t13.2,39.8q0,18-6.4,30.9a46.3,46.3,0,0,1-18.4,19.9q-12,7-28.8,7-23.59,0-36.5-14t-12.9-39.8q0-18,6.3-30.9a46,46,0,0,1,18.1-19.9Q555.73,113.47,572.53,113.47Zm-1.4,20q-11.4,0-17,8.9t-5.6,27.5q0,18.6,5.4,26.9t16.4,8.3q8,0,13-4t7.6-12.2q2.6-8.2,2.6-20.2,0-18.19-5.6-26.7T571.13,133.47Z" transform="translate(-49.31 -35.6)"/><path d="M760.33,209.07l-7.8-6,17.2,5.2v14.4h-56.8v-14.4l15.2-5.2-.6,4.8-34.2-52.4,7.6,5.6h-26l4.4-5.8v53.4l-3.6-6.2,17.6,5.8v14.4h-57.4v-14.4l17.8-5.2-3,5.6V96.47l3,5.4-17.8-4.6V82.87l57.4-1v14l-17.6,6,3.6-6v49.2l-4.4-4.6h28l-7.4,4.4,28.4-48,2.2,4.2-16.8-3.8V82.87l54-1v14.4l-17.8,5.6,6.2-4.8-34.6,56v-7.4Z" transform="translate(-49.31 -35.6)"/><path d="M813.33,225.07q-13.41,0-22.4-8.7t-9-26.3v-58.4l2.6,4-15.8-4.8v-14.4l41.2-1.4v70.4q0,9.41,4.2,13.9t11.2,4.5a29.59,29.59,0,0,0,11.9-2.9,45.53,45.53,0,0,0,12.9-9.1l-2,5v-65.8l2.6,4.6-15.8-4.8v-14.4l41.2-1.4v92.8l-3.4-4.8,16.8,5.2v14.2l-35.2,1.6-3.8-19.6,4,1.4a73.76,73.76,0,0,1-20.7,14.4A50.09,50.09,0,0,1,813.33,225.07Z" transform="translate(-49.31 -35.6)"/><path d="M938.93,225.07a35.41,35.41,0,0,1-20.5-6.1q-8.91-6.1-14-18.1t-5.1-29.2q0-29.59,15-43.9t42.2-14.3q4.4,0,8.8.4a81.36,81.36,0,0,1,9.2,1.4l-5.2,3.2v-33l2,2.8-16.4-5.4V68.67l42.4-1.6v140l-3.4-4,16.8,5.2v14.2l-35.2,1.6-3.6-17.2,2.8,1a69.87,69.87,0,0,1-17.5,12.9A40.87,40.87,0,0,1,938.93,225.07Zm10.8-20.6a24.73,24.73,0,0,0,11-2.9,55.17,55.17,0,0,0,12-8.5l-3.4,8.4v-71.8l3.4,6.4a64.58,64.58,0,0,0-17-2.6q-14.21,0-20.7,9.5t-6.5,26.1a60.77,60.77,0,0,0,2.6,18.8q2.6,8,7.3,12.3A16.13,16.13,0,0,0,949.73,204.47Z" transform="translate(-49.31 -35.6)"/><path d="M1060.92,206.27l-2-2.4,15.4,4.4v14.4h-54.8v-14.4l15.4-4.4-2,2.4v-73l1.8,1.8-15.2-4.2v-14.4l41.4-1.4Zm-14.8-106.8q-7.39,0-11.9-4.2t-4.5-12q0-8.4,4.7-12.5a17.46,17.46,0,0,1,11.9-4.1,16.8,16.8,0,0,1,11.6,4.1q4.61,4.1,4.6,12.3t-4.7,12.3A17.16,17.16,0,0,1,1046.12,99.47Z" transform="translate(-49.31 -35.6)"/></svg>