<svg width="36" height="32" viewBox="0 0 36 32" fill="none" xmlns="http://www.w3.org/2000/svg">
<path d="M4.5 0C2.01797 0 0 2.01797 0 4.5V27C0 29.482 2.01797 31.5 4.5 31.5H31.5C33.982 31.5 36 29.482 36 27V11.25C36 8.76797 33.982 6.75 31.5 6.75H5.625C5.00625 6.75 4.5 6.24375 4.5 5.625C4.5 5.00625 5.00625 4.5 5.625 4.5H31.5C32.7445 4.5 33.75 3.49453 33.75 2.25C33.75 1.00547 32.7445 0 31.5 0H4.5ZM29.25 16.875C29.8467 16.875 30.419 17.1121 30.841 17.534C31.2629 17.956 31.5 18.5283 31.5 19.125C31.5 19.7217 31.2629 20.294 30.841 20.716C30.419 21.1379 29.8467 21.375 29.25 21.375C28.6533 21.375 28.081 21.1379 27.659 20.716C27.2371 20.294 27 19.7217 27 19.125C27 18.5283 27.2371 17.956 27.659 17.534C28.081 17.1121 28.6533 16.875 29.25 16.875Z" fill="#476930"/>
</svg>
