<svg width="610" height="492" viewBox="0 0 610 492" fill="none" xmlns="http://www.w3.org/2000/svg">
<g clip-path="url(#clip0_4040_1215)">
<path d="M290.322 479.743C370.212 479.743 434.975 477.432 434.975 474.581C434.975 471.73 370.212 469.419 290.322 469.419C210.432 469.419 145.668 471.73 145.668 474.581C145.668 477.432 210.432 479.743 290.322 479.743Z" fill="#3F3D56"/>
<path d="M161.907 461.041C186 461.041 205.531 459.242 205.531 457.023C205.531 454.804 186 453.005 161.907 453.005C137.814 453.005 118.283 454.804 118.283 457.023C118.283 459.242 137.814 461.041 161.907 461.041Z" fill="#3F3D56"/>
<path d="M241.38 474.934C241.38 474.934 277.587 378.463 257.627 319.097C237.667 259.73 221.884 262.049 221.884 262.049C221.884 262.049 194.961 255.092 161.539 275.499C128.117 295.906 119.298 301.936 100.266 293.587C81.2337 285.239 77.5202 272.252 31.1009 273.644C31.1009 273.644 55.7031 260.194 79.8412 272.252C103.979 284.311 120.226 290.805 144.828 272.252C169.43 253.7 203.316 229.583 236.274 243.96C236.274 243.96 212.136 220.307 204.245 220.307C196.354 220.307 159.218 216.596 147.149 204.073C147.149 204.073 129.974 192.015 99.3373 221.698C68.7006 251.381 76.1277 251.381 48.7403 249.062C21.3529 246.743 0 233.293 0 233.293C0 233.293 32.0293 246.279 51.5254 239.786C71.0215 233.293 87.7325 208.711 104.908 200.363C122.083 192.015 132.295 180.883 155.505 192.942C155.505 192.942 145.757 153.055 127.189 156.302C108.621 159.548 136.009 147.026 136.009 147.026C136.009 147.026 130.902 79.3104 121.154 74.6723C111.406 70.0343 117.441 57.9754 99.3373 55.6564C99.3373 55.6564 121.619 52.8736 125.796 68.179C129.974 83.4845 158.754 166.042 158.754 166.042C158.754 166.042 176.393 201.291 195.889 192.942C215.385 184.594 188.462 137.75 188.462 137.75L155.04 122.444C155.04 122.444 180.107 121.516 195.425 135.894C210.744 150.272 211.672 196.653 211.672 196.653C211.672 196.653 250.2 202.218 259.484 223.089C259.484 223.089 265.518 204.537 253.913 193.406C251.012 190.623 247.966 185.782 245.029 180.086C233.795 158.303 229.984 133.472 233.518 109.224C235.247 97.3573 236.312 85.7547 234.417 83.0208C230.24 76.9913 212.6 39.8871 211.208 30.1472C209.815 20.4073 212.6 0 212.6 0C212.6 0 213.065 25.0454 218.635 32.93C224.205 40.8147 239.988 79.7741 239.988 79.7741C239.988 79.7741 239.988 128.937 252.985 153.055C265.982 177.173 291.049 204.073 289.656 221.698V231.902C289.656 231.902 317.508 205.465 315.651 196.653C313.794 187.84 311.473 166.969 293.834 154.446C276.195 141.924 264.59 121.98 277.123 93.2244C289.656 64.4686 289.656 59.3668 289.656 59.3668L281.301 95.0797C281.301 95.0797 276.659 127.082 289.656 138.213C302.654 149.345 319.829 169.752 319.829 169.752L316.115 102.964L328.184 129.401C328.184 129.401 354.179 96.0072 384.816 84.876C415.453 73.7447 434.485 34.7852 434.485 34.7852L460.479 14.3779L439.126 39.8871C439.126 39.8871 432.628 70.0343 395.957 91.3692C359.285 112.704 335.611 144.243 334.219 163.723C332.826 183.202 331.434 200.363 331.434 200.363C331.434 200.363 400.134 198.044 415.453 167.897C430.771 137.75 432.164 77.9189 447.018 68.1791C461.872 58.4392 489.723 46.3803 489.723 46.3803L458.623 71.8895C458.623 71.8895 452.124 92.7606 453.516 107.602C454.909 122.444 443.304 136.358 443.304 136.358L434.485 162.331L424.737 184.594C424.737 184.594 464.657 185.521 485.546 209.175C506.434 232.829 558.424 239.786 558.424 239.786L529.18 247.671C529.18 247.671 501.328 238.395 474.869 221.234C448.41 204.073 451.195 188.768 418.238 205.929C385.28 223.089 340.253 237.467 340.253 237.467C340.253 237.467 366.248 225.408 413.132 254.628C460.015 283.848 389.922 249.526 369.033 260.657C348.145 271.789 338.397 257.875 330.041 285.703C321.686 313.531 306.367 389.595 324.007 432.265L341.646 474.934H241.38Z" fill="#5B4830"/>
<path opacity="0.1" d="M416.157 167.897C403.712 192.389 356.032 198.514 338.583 199.95C338.094 206.237 337.771 210.213 337.771 210.213C337.771 210.213 406.472 207.894 421.79 177.747C437.109 147.6 438.501 87.7694 453.356 78.0295C454.931 76.9966 456.654 75.9374 458.472 74.8695C458.983 72.9975 459.327 71.8895 459.327 71.8895L490.428 46.3804C490.428 46.3804 462.576 58.4392 447.722 68.1791C432.868 77.919 431.475 137.75 416.157 167.897Z" fill="black"/>
<path opacity="0.1" d="M336.107 121.041C336.005 132.46 334.522 139.252 334.522 139.252C334.522 139.252 360.506 105.872 391.134 94.7336C392.944 93.5894 394.781 92.4629 396.661 91.3693C433.332 70.0343 439.831 39.8871 439.831 39.8871L461.183 14.3779L435.189 34.7853C435.189 34.7853 416.157 73.7448 385.52 84.876C364.637 92.4636 345.914 110.392 336.107 121.041Z" fill="black"/>
<path opacity="0.1" d="M295.994 231.548V241.752C295.994 241.752 323.846 215.315 321.989 206.503C320.569 199.764 318.869 185.974 310.262 174.257C314.141 183.112 315.322 191.749 316.355 196.653C317.687 202.972 303.742 218.353 295.745 226.551C296.026 228.201 296.109 229.879 295.994 231.548Z" fill="black"/>
<path opacity="0.1" d="M258.634 161.525C258.854 161.995 259.082 162.458 259.323 162.905C266.441 176.114 277.173 190.154 285.202 203.051C278.713 190.279 267.419 175.674 258.634 161.525Z" fill="black"/>
<path opacity="0.1" d="M281.264 141.78C277.521 132.616 276.904 121.711 281.205 108.933C281.151 104.302 281.418 99.6735 282.005 95.0796L289.314 63.8389C287.967 68.3441 284.883 77.0354 277.827 93.2244C268.895 113.719 272.229 129.734 281.264 141.78Z" fill="black"/>
<path opacity="0.1" d="M486.25 209.175C471.764 192.771 448.128 187.299 434.997 185.484L431.074 194.444C431.074 194.444 470.995 195.372 491.883 219.026C503.467 232.143 524.612 240.123 541.155 244.632L559.128 239.786C559.128 239.786 507.139 232.829 486.25 209.175Z" fill="black"/>
<path opacity="0.1" d="M202.227 202.793C221.723 194.444 194.8 147.6 194.8 147.6L194.064 147.263C200.776 161.412 210.51 186.983 196.594 192.942C183.571 198.518 171.379 184.645 164.717 174.816C164.959 175.511 165.092 175.892 165.092 175.892C165.092 175.892 182.731 211.141 202.227 202.793Z" fill="black"/>
<path opacity="0.1" d="M265.822 232.94C265.822 232.94 271.696 214.847 260.66 203.676C263.366 213.299 260.188 223.089 260.188 223.089C253.006 206.944 228.329 199.959 217.52 197.623C217.939 202.998 218.01 206.503 218.01 206.503C218.01 206.503 256.538 212.069 265.822 232.94Z" fill="black"/>
<path opacity="0.1" d="M289.314 63.8388C290.36 60.3417 290.361 59.3667 290.361 59.3667L289.314 63.8388Z" fill="black"/>
<path opacity="0.1" d="M57.5813 249.725C57.675 249.695 57.77 249.668 57.863 249.637C77.3591 243.143 94.0701 218.562 111.245 210.213C128.42 201.865 138.633 190.734 161.842 202.793C161.842 202.793 157.782 186.186 149.913 175.276C152.519 180.971 154.626 186.882 156.209 192.942C132.999 180.883 122.787 192.015 105.612 200.363C88.4366 208.712 71.7256 233.293 52.2295 239.786C32.7334 246.28 0.704102 233.293 0.704102 233.293C0.704102 233.293 22.057 246.743 49.4444 249.062C52.5773 249.328 55.2505 249.562 57.5813 249.725Z" fill="black"/>
<path opacity="0.1" d="M251.109 474.934C259.614 448.883 280.069 376.845 263.965 328.947C257.01 308.262 250.564 295.072 245.114 286.657C249.19 294.623 253.645 305.159 258.331 319.096C278.292 378.463 242.084 474.934 242.084 474.934H251.109Z" fill="black"/>
<path opacity="0.1" d="M69.8288 277.375C75.5198 277.952 81.0592 279.554 86.179 282.103C105.242 291.627 119.387 297.667 136.609 290.652C140.533 288.581 144.921 286.018 149.982 282.968C150.376 282.68 150.767 282.404 151.166 282.103C175.768 263.551 209.654 239.433 242.612 253.811C242.612 253.811 235.951 247.285 228.484 241.089C198.276 233.685 168.025 255.292 145.532 272.253C120.93 290.805 104.684 284.311 80.5454 272.253C56.4074 260.194 31.8052 273.644 31.8052 273.644C49.7404 273.106 61.2973 274.716 69.8288 277.375Z" fill="black"/>
<path opacity="0.1" d="M116.946 70.1699C117.475 71.0608 118.117 71.8803 118.855 72.6083C118.313 71.726 117.672 70.908 116.946 70.1699Z" fill="black"/>
<path opacity="0.1" d="M201.763 145.745C202.48 146.423 203.153 147.147 203.775 147.913C201.742 143.029 199.231 138.805 196.129 135.894C180.811 121.516 155.745 122.444 155.745 122.444L187.181 136.84C192.567 138.848 197.518 141.871 201.763 145.745Z" fill="black"/>
<path opacity="0.1" d="M235.122 83.0208C237.016 85.7547 235.952 97.3573 234.222 109.224C230.688 133.472 234.499 158.303 245.733 180.086C247.211 183.009 248.863 185.842 250.679 188.57C239.982 167.118 236.395 142.818 239.856 119.074C241.585 107.208 242.649 95.6052 240.755 92.8712C236.577 86.8418 218.938 49.7375 217.545 39.9976C217.128 36.219 217.031 32.4119 217.255 28.6169C213.649 18.3947 213.304 0 213.304 0C213.304 0 210.519 20.4074 211.912 30.1472C213.304 39.887 230.944 76.9913 235.122 83.0208Z" fill="black"/>
<path opacity="0.1" d="M278.67 18.9017C278.484 17.985 278.202 17.0905 277.827 16.2332C277.827 16.2332 278.184 17.2341 278.67 18.9017Z" fill="black"/>
<path opacity="0.1" d="M114.715 65.6127C118.806 66.1131 123.512 67.3672 127.102 70.2758C126.867 69.4845 126.663 68.7752 126.501 68.1791C122.323 52.8736 100.042 55.6564 100.042 55.6564C110.111 56.9462 112.712 61.2494 114.715 65.6127Z" fill="black"/>
<path d="M230.089 455.117C233.398 467.342 244.735 474.913 244.735 474.913C244.735 474.913 250.705 462.664 247.395 450.44C244.086 438.215 232.749 430.645 232.749 430.645C232.749 430.645 226.779 442.893 230.089 455.117Z" fill="#3F3D56"/>
<path d="M234.952 452.49C244.034 461.324 245.143 474.902 245.143 474.902C245.143 474.902 231.528 474.16 222.446 465.326C213.364 456.493 212.255 442.914 212.255 442.914C212.255 442.914 225.87 443.657 234.952 452.49Z" fill="#F67924"/>
<path d="M204.851 121.052C204.061 133.691 194.474 143.379 194.474 143.379C194.474 143.379 186.167 132.575 186.957 119.936C187.746 107.297 197.333 97.6091 197.333 97.6091C197.333 97.6091 205.64 108.413 204.851 121.052Z" fill="#F67924"/>
<path d="M104.915 41.15C115.636 47.9038 119.547 60.9555 119.547 60.9555C119.547 60.9555 106.074 63.0573 95.3529 56.3035C84.6315 49.5498 80.7209 36.498 80.7209 36.498C80.7209 36.498 94.1932 34.3963 104.915 41.15Z" fill="#F67924"/>
<path d="M80.9722 195.239C91.6936 201.992 95.6041 215.044 95.6041 215.044C95.6041 215.044 82.1319 217.146 71.4105 210.392C60.6891 203.638 56.7786 190.587 56.7786 190.587C56.7786 190.587 70.2508 188.485 80.9722 195.239Z" fill="#F67924"/>
<path d="M138.012 254.341C148.733 261.095 152.644 274.147 152.644 274.147C152.644 274.147 139.171 276.248 128.45 269.495C117.729 262.741 113.818 249.689 113.818 249.689C113.818 249.689 127.29 247.587 138.012 254.341Z" fill="#F67924"/>
<path d="M298.933 63.6766C295.7 75.9212 284.411 83.5626 284.411 83.5626C284.411 83.5626 278.364 71.3514 281.598 59.1067C284.831 46.862 296.12 39.2207 296.12 39.2207C296.12 39.2207 302.167 51.4319 298.933 63.6766Z" fill="#F67924"/>
<path d="M400.925 73.224C397.125 85.305 385.492 92.413 385.492 92.413C385.492 92.413 380.021 79.9339 383.821 67.8528C387.622 55.7718 399.254 48.6638 399.254 48.6638C399.254 48.6638 404.725 61.143 400.925 73.224Z" fill="#F67924"/>
<path d="M511.163 207.68C504.279 218.313 491.171 222.068 491.171 222.068C491.171 222.068 489.225 208.584 496.109 197.951C502.993 187.317 516.1 183.562 516.1 183.562C516.1 183.562 518.046 197.047 511.163 207.68Z" fill="#F67924"/>
<path d="M338.099 294.626C338.099 294.626 336.993 298.677 339.205 300.15C341.416 301.623 342.153 308.62 342.153 308.62L337.731 320.773L325.936 322.982L321.513 314.512V301.991C321.513 301.991 322.987 295.731 322.619 293.889C322.25 292.048 338.099 294.626 338.099 294.626Z" fill="#FFB9B9"/>
<path opacity="0.2" d="M338.099 294.626C338.099 294.626 336.993 298.677 339.205 300.15C341.416 301.623 342.153 308.62 342.153 308.62L337.731 320.773L325.936 322.982L321.513 314.512V301.991C321.513 301.991 322.987 295.731 322.619 293.889C322.25 292.048 338.099 294.626 338.099 294.626Z" fill="black"/>
<path d="M349.893 364.228L359.476 366.07C359.476 366.07 360.214 376.749 359.476 379.327C358.739 381.905 358.002 384.851 358.739 385.588C359.476 386.324 355.422 405.106 355.791 406.211C356.159 407.315 356.896 410.63 356.528 412.839C356.159 415.049 355.054 414.313 355.791 416.522C356.528 418.732 357.265 419.1 356.528 420.573C355.791 422.046 352.105 457.768 350.999 458.136C349.893 458.505 339.942 458.873 339.942 458.136C339.942 457.4 343.259 451.876 342.153 450.403C341.048 448.93 342.522 423.887 342.522 422.783C342.522 421.678 344.733 419.837 343.628 419.1C342.522 418.363 341.785 417.627 342.153 416.522C342.522 415.417 343.259 415.049 342.522 413.944C341.785 412.839 341.785 390.743 339.205 390.007C339.205 390.007 335.888 406.211 336.993 410.262C338.099 414.313 336.625 415.786 336.625 415.786L341.785 420.205L334.782 433.462L327.41 424.992C327.41 424.992 327.41 422.783 325.936 422.414C324.462 422.046 323.725 421.678 323.725 420.573C323.725 419.468 321.145 412.471 321.145 412.471C321.145 412.471 313.773 389.27 317.459 377.486C321.145 365.701 322.564 366.091 322.564 366.091L349.893 364.228Z" fill="#2F2E41"/>
<path d="M355.791 440.46L359.845 444.879L358.371 457.031H355.054L349.894 445.615L355.791 440.46Z" fill="#FFB9B9"/>
<path d="M358.371 448.561C358.371 448.561 356.896 451.876 355.791 451.139C354.685 450.402 354.318 449.298 352.659 449.298C350.999 449.298 349.525 449.666 349.893 450.402C350.262 451.139 354.685 459.241 354.685 459.241C355.334 460.624 355.67 462.133 355.67 463.66C355.67 465.188 355.334 466.696 354.685 468.079C352.473 472.867 360.582 475.445 362.056 470.289C363.531 465.133 363.899 459.241 363.531 457.031C363.162 454.822 365.374 443.405 365.374 443.405C365.374 443.405 359.419 440.663 357.605 440.561C357.605 440.561 359.108 447.088 358.371 448.561Z" fill="#2F2E41"/>
<path d="M348.419 456.663L349.893 461.082C349.893 461.082 349.893 465.502 351.368 467.711C352.842 469.921 354.316 474.708 348.419 475.076C342.522 475.445 339.942 473.235 339.942 473.235C339.942 473.235 341.048 470.289 339.942 469.184C338.836 468.079 339.942 465.87 339.942 465.87L341.048 457.031L348.419 456.663Z" fill="#2F2E41"/>
<path d="M338.468 419.836H341.785L358.371 441.564C358.371 441.564 355.422 448.561 350.999 449.298C350.999 449.298 350.262 448.929 346.945 446.72C343.628 444.51 334.782 433.462 334.782 433.462L333.676 427.202L338.468 419.836Z" fill="#2F2E41"/>
<path d="M330.359 299.413C336.873 299.413 342.153 294.137 342.153 287.629C342.153 281.12 336.873 275.844 330.359 275.844C323.845 275.844 318.564 281.12 318.564 287.629C318.564 294.137 323.845 299.413 330.359 299.413Z" fill="#FFB9B9"/>
<path d="M344.733 302.728L341.048 301.255C341.048 301.255 340.679 314.144 333.676 314.144C326.673 314.144 319.302 312.303 319.302 308.62C319.302 304.937 313.405 315.249 313.405 315.249C313.405 315.249 318.933 352.075 318.565 352.444C318.196 352.812 322.619 372.33 322.619 372.33C322.619 372.33 341.416 373.067 347.682 370.489C353.948 367.911 355.791 363.123 355.791 363.123L353.211 330.716L348.051 305.674L344.733 302.728Z" fill="#F67924"/>
<path d="M338.47 299.413C338.47 299.413 339.942 297.94 342.153 299.413C344.365 300.886 358.002 304.201 358.002 305.306V319.3C358.002 319.3 358.371 321.509 357.265 322.982C356.159 324.455 353.579 329.979 355.054 332.557C356.528 335.135 362.056 364.965 360.951 368.647C359.845 372.33 356.896 375.644 356.896 375.644C356.896 375.644 341.048 342.132 341.048 332.557C341.048 322.982 341.201 311.235 341.201 311.235L338.47 299.413Z" fill="#575A89"/>
<path d="M354.685 305.674H358.002C358.002 305.674 370.534 329.611 370.534 334.399C370.534 339.186 362.425 365.701 361.688 366.07C360.951 366.438 358.739 362.019 358.739 362.019L356.896 347.288C356.896 347.288 360.582 338.45 359.476 336.976C358.371 335.503 352.842 324.087 352.842 324.087L354.685 305.674Z" fill="#575A89"/>
<path d="M322.058 299.413C322.058 299.413 317.827 302.359 317.09 303.464C316.353 304.569 305.296 310.83 304.927 312.303C304.559 313.776 313.404 326.297 313.404 326.297C313.404 326.297 317.09 346.92 317.09 348.393C317.09 349.866 318.565 374.908 318.565 374.908C318.565 374.908 333.676 379.327 333.676 376.749C333.676 374.171 334.045 337.345 331.833 329.243C329.622 321.141 322.058 299.413 322.058 299.413Z" fill="#575A89"/>
<path d="M324.462 375.645C324.462 375.645 336.993 392.585 330.359 392.217C323.725 391.848 319.302 377.486 319.302 377.486L324.462 375.645Z" fill="#FFB9B9"/>
<path d="M309.35 311.198L304.927 312.303C304.927 312.303 301.242 344.71 303.453 349.129C305.664 353.548 317.459 382.273 317.459 381.168C317.459 380.064 327.834 378.094 327.438 377.054C327.042 376.013 324.83 371.593 324.093 370.12C323.356 368.647 322.25 366.806 322.619 364.965C322.987 363.123 318.565 355.242 318.565 355.242C318.565 355.242 317.459 350.602 317.09 348.393C316.722 346.183 313.405 321.877 313.405 321.877L309.35 311.198Z" fill="#575A89"/>
<path d="M341.923 278.506C341.698 277.813 341.222 277.229 340.589 276.868C340.622 276.136 340.526 275.405 340.307 274.706C339.573 272.665 337.833 272.782 336.192 271.879C335.48 271.488 335.524 271.142 335.154 270.499C334.656 269.644 333.929 268.946 333.054 268.484C332.042 267.766 330.873 267.3 329.645 267.124C327.027 266.956 325.021 269.271 322.519 270.014C321.416 270.342 320.232 270.355 319.123 270.665C318.015 270.974 316.909 271.714 316.744 272.79C316.667 273.287 316.802 273.797 316.724 274.293C316.571 275.281 315.65 275.972 315.033 276.784C313.67 278.58 313.826 281.117 314.916 283.071C315.147 283.477 315.41 283.864 315.702 284.228C315.795 285.157 316.077 286.056 316.532 286.871C317.623 288.825 319.499 290.285 321.459 291.498C321.299 290.852 321.201 290.191 321.168 289.525C321.141 289.303 321.171 289.078 321.257 288.872C321.476 288.442 322.053 288.328 322.492 288.093C322.912 287.818 323.252 287.438 323.479 286.991C323.706 286.544 323.812 286.045 323.787 285.544C323.813 284.559 323.591 283.573 323.701 282.593C323.707 282.364 323.762 282.14 323.864 281.935C323.965 281.73 324.11 281.55 324.288 281.407C324.627 281.225 325.01 281.14 325.395 281.158C327.261 281.087 329.211 281.055 330.857 280.225C331.391 279.891 331.961 279.62 332.557 279.416C333.956 279.073 335.386 279.995 336.192 281.123C336.998 282.252 337.4 283.595 338.144 284.761C338.888 285.927 340.173 286.967 341.611 286.828C341.691 286.829 341.771 286.813 341.845 286.783C341.918 286.752 341.985 286.706 342.041 286.649C342.103 286.545 342.13 286.425 342.12 286.305L342.2 281.134C342.267 280.249 342.173 279.358 341.923 278.506Z" fill="#2F2E41"/>
<path d="M537.485 492C577.534 492 610 489.689 610 486.838C610 483.987 577.534 481.676 537.485 481.676C497.436 481.676 464.97 483.987 464.97 486.838C464.97 489.689 497.436 492 537.485 492Z" fill="#3F3D56"/>
<path d="M512.104 474.74C512.104 474.74 505.913 479.949 502.655 479.624C499.396 479.298 493.206 479.298 495.812 482.879C498.419 486.46 509.171 488.414 513.733 488.739C518.295 489.065 528.395 489.39 527.744 487.437C527.092 485.484 526.44 476.368 523.834 475.717C521.227 475.066 512.104 474.74 512.104 474.74Z" fill="#575A89"/>
<path d="M547.636 469.626C547.636 469.626 543.074 476.306 539.848 476.867C536.622 477.429 530.659 479.091 534.133 481.84C537.607 484.59 548.489 483.584 552.97 482.673C557.452 481.761 567.268 479.362 566.115 477.656C564.962 475.949 561.882 467.344 559.197 467.417C556.511 467.49 547.636 469.626 547.636 469.626Z" fill="#575A89"/>
<path d="M508.477 374.097C508.477 374.097 504.284 402.792 505.261 408.001C506.239 413.21 506.891 421.349 506.891 421.349C506.891 421.349 506.239 428.186 506.891 431.441C507.542 434.697 511.452 465.625 511.452 466.276C511.452 466.927 510.801 468.88 511.452 470.508C512.104 472.136 513.407 470.834 511.452 473.438C509.497 476.043 510.801 476.694 511.126 476.694C511.452 476.694 524.16 477.996 524.811 476.694C525.463 475.391 524.485 475.066 524.811 473.438C525.137 471.81 525.463 471.485 526.115 471.159C526.766 470.834 528.07 471.485 527.092 469.857C526.115 468.229 523.834 466.276 524.485 465.299C525.137 464.323 524.16 457.16 524.16 457.16C524.16 457.16 523.508 441.208 523.182 431.441C522.856 421.675 526.115 411.582 526.115 411.582C526.52 419.574 529.491 427.222 534.586 433.395C543.058 443.487 547.294 462.369 547.294 462.369C547.294 462.369 549.249 465.299 548.271 467.904C547.294 470.508 544.361 468.88 547.294 470.508C550.226 472.136 560.327 469.857 561.304 468.88C562.282 467.904 560.001 466.601 560.653 463.997C561.304 461.393 563.911 462.044 561.63 460.741C559.349 459.439 558.698 459.765 558.698 458.463C558.698 457.16 552.833 428.837 543.709 420.698L543.058 391.072C543.058 391.072 551.204 370.237 542.732 368.283C534.26 366.33 508.477 374.097 508.477 374.097Z" fill="#2F2E41"/>
<path d="M514.385 296.986C514.385 296.986 519.924 310.66 518.621 312.613C517.317 314.566 534.586 306.102 534.586 306.102C534.586 306.102 529.047 292.429 529.047 290.801C529.047 289.173 514.385 296.986 514.385 296.986Z" fill="#A0616A"/>
<path d="M518.458 300.405C525.116 300.405 530.513 295.012 530.513 288.359C530.513 281.706 525.116 276.313 518.458 276.313C511.799 276.313 506.402 281.706 506.402 288.359C506.402 295.012 511.799 300.405 518.458 300.405Z" fill="#A0616A"/>
<path d="M534.586 300.567C534.586 300.567 526.115 299.591 521.879 304.8C517.643 310.009 516.991 311.311 516.991 311.311C516.991 311.311 506.891 327.589 508.846 335.728C509.322 336.462 509.757 337.223 510.149 338.006C510.801 339.309 510.801 357.54 510.149 360.47C509.497 363.4 508.846 364.376 509.497 368.609C510.149 372.841 504.284 379.678 511.126 380.98C517.969 382.282 523.182 381.305 525.463 378.375C527.744 375.445 525.789 373.492 532.957 373.492C537.347 373.416 541.542 371.669 544.687 368.609C544.687 368.609 541.103 364.702 542.406 364.051C543.71 363.4 542.406 361.772 541.755 360.144C541.103 358.516 541.103 357.214 542.08 357.214C543.058 357.214 542.406 356.563 541.755 354.935C541.103 353.308 553.159 325.31 545.99 317.171C538.822 309.032 535.238 304.474 535.238 304.474C535.238 304.474 536.541 299.591 534.586 300.567Z" fill="#F67924"/>
<path d="M516.014 331.495V345.82L505.587 380.329C505.587 380.329 498.745 398.235 505.587 398.235C512.43 398.235 512.063 381.144 512.063 381.144L526.766 355.261C526.766 355.261 532.631 334.751 531.979 333.123C531.328 331.495 516.014 331.495 516.014 331.495Z" fill="#A0616A"/>
<path d="M521.553 310.334C521.553 310.334 511.778 314.241 514.385 324.659C516.991 335.076 514.385 334.751 514.385 334.751C514.385 334.751 527.744 333.449 531.979 336.379L532.957 332.472C532.957 332.472 536.867 310.009 521.553 310.334Z" fill="#F67924"/>
<path d="M514.341 279.316C513.589 279.583 512.782 279.658 511.993 279.536C511.204 279.413 510.458 279.096 509.823 278.614C509.204 278.109 508.768 277.416 508.583 276.64C508.397 275.864 508.472 275.049 508.796 274.32C509.42 273.097 510.754 272.426 512.034 271.925C514.857 270.822 517.83 270.151 520.853 269.935C522.295 269.833 523.808 269.849 525.095 270.507C525.731 270.833 526.284 271.302 526.914 271.64C528.073 272.26 529.422 272.398 530.674 272.797C531.956 273.214 533.133 273.902 534.125 274.813C535.117 275.725 535.902 276.839 536.426 278.079C536.767 278.922 537.005 279.802 537.135 280.702C537.509 283.164 537.248 285.681 536.374 288.014C534.986 291.709 532.073 294.939 531.908 298.882C530.125 297.59 529.464 295.257 528.035 293.582C526.972 292.344 525.52 291.502 523.917 291.195C523.473 291.168 523.046 291.013 522.689 290.748C522.441 290.451 522.285 290.088 522.241 289.703L521.021 283.948C520.773 282.776 520.459 281.499 519.495 280.788C518.896 280.404 518.215 280.165 517.507 280.088C515.825 279.794 514.121 279.639 512.413 279.624" fill="#2F2E41"/>
</g>
<defs>
<clipPath id="clip0_4040_1215">
<rect width="610" height="492" fill="white"/>
</clipPath>
</defs>
</svg>
