<svg width="492" height="403" viewBox="0 0 492 403" fill="none" xmlns="http://www.w3.org/2000/svg">
<g clip-path="url(#clip0_4036_252)">
<path d="M65.9391 93.2782C52.7774 93.2836 47.1234 112.316 34.2432 115.02C28.4906 116.228 22.6212 113.823 16.7436 113.719C10.8661 113.615 3.83573 117.877 5.07771 123.615L117.13 121.928C105.548 120.727 94.7148 115.645 86.3946 107.51C80.3215 101.478 74.504 93.2747 65.9391 93.2782Z" fill="#F0F0F0"/>
<path d="M322.948 292.96C306.575 292.958 290.732 287.158 278.238 276.59C265.743 266.022 257.407 251.372 254.71 235.244L254.688 235.11L254.774 235.007C259.2 229.714 262.778 223.768 265.379 217.381C262.283 221.344 258.543 224.76 254.314 227.487L253.881 227.776L253.855 227.256C253.8 226.112 253.772 224.974 253.772 223.876C253.734 212.129 256.713 200.568 262.424 190.299C268.136 180.029 276.389 171.394 286.396 165.219C268.884 147.071 259.123 122.836 259.173 97.6343C259.173 43.7986 303.039 9.7522e-05 356.958 9.7522e-05C377.515 -0.0289314 397.557 6.4234 414.227 18.4374C430.898 30.4514 443.345 47.414 449.795 66.9074L449.882 67.1698L449.625 67.2735C442.968 69.9654 436.841 71.2587 430.981 71.1956C437.66 73.0843 444.592 73.9214 451.53 73.6768L451.768 73.6687L451.826 73.9001C453.764 81.663 454.744 89.6337 454.742 97.6343C454.742 97.923 454.741 98.2115 454.738 98.4998C454.719 104.721 456.014 110.876 458.536 116.564C461.059 122.252 464.754 127.345 469.38 131.511C476.769 138.226 482.615 146.459 486.515 155.645C490.414 164.831 492.274 174.752 491.967 184.725C491.661 194.697 489.194 204.485 484.738 213.415C480.281 222.345 473.941 230.205 466.152 236.454L466.01 236.567L465.845 236.492C455.618 231.858 448.495 226.685 443.644 220.334C446.924 228.331 451.706 235.628 457.733 241.83L457.995 242.1L457.67 242.29C447.332 248.304 435.61 251.54 423.646 251.682C411.683 251.824 399.887 248.867 389.409 243.101C385.2 257.46 376.454 270.074 364.476 279.061C352.497 288.047 337.93 292.922 322.948 292.96Z" fill="#D8EECE"/>
<path d="M298.303 403C298.001 403 297.709 402.89 297.48 402.692C297.252 402.494 297.103 402.221 297.061 401.922C297.007 401.547 291.777 363.876 296.474 313.81C300.812 267.572 314.744 200.974 356.476 146.278C356.576 146.147 356.701 146.037 356.844 145.954C356.986 145.871 357.144 145.817 357.308 145.795C357.471 145.772 357.638 145.783 357.797 145.825C357.957 145.867 358.107 145.94 358.238 146.04C358.37 146.14 358.48 146.265 358.563 146.407C358.646 146.55 358.7 146.707 358.722 146.871C358.744 147.034 358.734 147.201 358.691 147.36C358.649 147.519 358.576 147.669 358.475 147.8C317.103 202.024 303.284 268.133 298.977 314.044C294.307 363.819 299.496 401.196 299.549 401.568C299.574 401.746 299.561 401.927 299.51 402.1C299.459 402.272 299.371 402.432 299.253 402.568C299.135 402.703 298.989 402.812 298.825 402.887C298.661 402.961 298.483 403 298.303 403Z" fill="#3F3D56"/>
<path d="M319.165 218.602C318.9 218.602 318.641 218.518 318.426 218.362C318.211 218.207 318.051 217.987 317.969 217.735C317.887 217.483 317.887 217.211 317.969 216.959C318.051 216.707 318.211 216.487 318.425 216.331C318.577 216.221 333.844 205.236 356.668 196.89C377.767 189.176 409.851 182.182 442.881 192.681C443.038 192.73 443.184 192.811 443.311 192.917C443.437 193.023 443.541 193.153 443.617 193.3C443.693 193.446 443.739 193.606 443.753 193.771C443.767 193.935 443.749 194.1 443.698 194.258C443.648 194.415 443.568 194.56 443.461 194.686C443.355 194.812 443.224 194.916 443.078 194.992C442.931 195.068 442.771 195.114 442.606 195.128C442.442 195.141 442.276 195.123 442.119 195.072C409.765 184.79 378.263 191.668 357.532 199.247C335.034 207.474 320.052 218.254 319.903 218.362C319.689 218.518 319.431 218.602 319.165 218.602Z" fill="#3F3D56"/>
<path d="M65.6379 368.794L69.8847 370.121L98.3825 279.179C97.2171 278.883 95.9824 279.043 94.932 279.628C93.8816 280.213 93.0953 281.177 92.7347 282.322L65.6379 368.794Z" fill="#3F3D56"/>
<path d="M159.298 250.165H140.511V195.018H159.298C162.892 195.022 166.338 196.45 168.88 198.988C171.421 201.526 172.851 204.967 172.855 208.557V236.626C172.851 240.216 171.421 243.657 168.88 246.195C166.338 248.733 162.892 250.161 159.298 250.165Z" fill="#2F2E41"/>
<path d="M156.683 220.622C156.056 220.621 155.454 220.372 155.01 219.929C154.567 219.486 154.317 218.885 154.316 218.258V197.775H159.05V218.258C159.049 218.885 158.799 219.486 158.356 219.929C157.912 220.372 157.31 220.621 156.683 220.622Z" fill="#3F3D56"/>
<path d="M162.373 245.832H148.627C147.834 245.831 147.075 245.516 146.515 244.957C145.955 244.398 145.64 243.639 145.639 242.848V234.635C145.64 233.844 145.955 233.086 146.515 232.526C147.075 231.967 147.834 231.652 148.627 231.651H162.373C163.165 231.652 163.924 231.967 164.484 232.526C165.045 233.086 165.36 233.844 165.361 234.635V242.848C165.36 243.639 165.045 244.398 164.484 244.957C163.924 245.516 163.165 245.831 162.373 245.832Z" fill="#3F3D56"/>
<path d="M122.292 189.28C121.969 189.28 121.656 189.169 121.406 188.964C121.251 188.838 121.124 188.682 121.032 188.504C120.941 188.327 120.887 188.133 120.875 187.934C120.431 180.866 121.661 173.794 124.463 167.29C126.362 162.899 128.547 160.07 131.338 158.386C135.062 156.14 140.172 155.96 145.357 157.894C148.32 158.998 150.457 160.443 151.89 162.309C153.802 164.798 154.402 167.992 154.765 171.073C155.313 175.734 155.442 180.435 155.15 185.119C155.137 185.361 155.06 185.595 154.926 185.798C154.792 186 154.608 186.163 154.39 186.271C154.155 186.386 153.894 186.437 153.632 186.42C153.371 186.403 153.119 186.318 152.901 186.173C152.813 186.116 152.722 186.062 152.629 186.014C152.157 185.778 151.634 185.658 151.106 185.664C150.578 185.671 150.059 185.804 149.592 186.053C149.25 186.255 148.927 186.487 148.625 186.746L146.761 188.253C146.531 188.435 146.251 188.543 145.957 188.562C145.664 188.58 145.372 188.509 145.121 188.357C143.769 187.589 142.258 187.144 140.705 187.055C138.644 186.978 136.581 187.127 134.552 187.501L122.502 189.265C122.433 189.275 122.362 189.28 122.292 189.28Z" fill="#2F2E41"/>
<path d="M120.683 389.982H114.248L111.187 365.195H120.684L120.683 389.982Z" fill="#FFB6B6"/>
<path d="M124.145 402.184H119.579L118.764 397.878L116.677 402.184H104.566C103.986 402.184 103.421 401.998 102.953 401.655C102.485 401.311 102.14 400.827 101.967 400.274C101.794 399.721 101.803 399.126 101.993 398.578C102.182 398.03 102.542 397.557 103.019 397.228L112.69 390.558V386.205L122.862 386.812L124.145 402.184Z" fill="#2F2E41"/>
<path d="M194.738 384.484L188.806 386.975L176.363 365.31L185.118 361.635L194.738 384.484Z" fill="#FFB6B6"/>
<path d="M202.665 394.392L198.455 396.16L196.033 392.507L195.78 397.283L184.616 401.971C184.081 402.196 183.488 402.244 182.924 402.108C182.36 401.972 181.853 401.66 181.479 401.217C181.105 400.773 180.883 400.222 180.845 399.644C180.806 399.065 180.954 398.49 181.267 398.001L187.593 388.109L185.904 384.097L195.516 380.719L202.665 394.392Z" fill="#2F2E41"/>
<path d="M117.676 221.169L115.832 245.84L103.603 282.684L98.6909 279.833L105.354 242.362L107.617 220.746L117.676 221.169Z" fill="#FFB6B6"/>
<path d="M100.75 288.058C103.593 288.058 105.897 285.756 105.897 282.917C105.897 280.078 103.593 277.777 100.75 277.777C97.9074 277.777 95.6029 280.078 95.6029 282.917C95.6029 285.756 97.9074 288.058 100.75 288.058Z" fill="#FFB6B6"/>
<path d="M149.058 249.583V256.389C149.058 256.389 159.605 274.951 155.31 282.917L171.146 326.177C171.146 326.177 192.621 347.623 190.78 362.942L192.007 367.844L177.895 373.972L174.828 369.682L150.898 328.628L130.65 291.25L126.969 335.368C126.969 335.368 129.423 369.682 122.674 373.359L122.06 378.874H107.738V373.632C107.738 373.632 102.426 354.976 105.494 340.883L104.267 281.446C104.267 281.446 109.789 256.324 116.538 252.034L118.993 245.907L149.058 249.583Z" fill="#2F2E41"/>
<path d="M160.327 202.411L146.953 196.158L143.093 189.439L130.111 190.174L126.183 196.578L114.629 198.916L116.327 240.622C115.57 241.93 115.301 243.463 115.565 244.95C115.971 247.563 118.03 245.507 115.971 247.563C113.912 249.62 112.36 248.586 113.393 250.388C114.427 252.19 111.885 254.999 111.885 254.999C111.885 254.999 144.754 271.718 154.04 250.388C154.04 250.388 155.87 244.149 152.778 231.078C149.685 218.007 160.327 202.411 160.327 202.411Z" fill="#E4E4E4"/>
<path d="M118.426 201.572L114.629 198.916C114.629 198.916 109.376 201.069 109.199 205.426C109.022 209.782 106.003 222.819 106.003 222.819L117.993 229.257L118.426 201.572Z" fill="#E4E4E4"/>
<path d="M163.486 223.225L161.643 247.896L141.177 278.572L136.266 275.721L151.165 244.419L153.428 222.802L163.486 223.225Z" fill="#FFB6B6"/>
<path d="M154.072 203.806L160.327 202.411C160.327 202.411 164.097 203.614 164.612 209.268C165.126 214.922 165.558 224.763 165.558 224.763L152.43 234.405L149.17 220.577L154.072 203.806Z" fill="#E4E4E4"/>
<path d="M137.81 283.945C140.653 283.945 142.957 281.644 142.957 278.805C142.957 275.966 140.653 273.665 137.81 273.665C134.967 273.665 132.663 275.966 132.663 278.805C132.663 281.644 134.967 283.945 137.81 283.945Z" fill="#FFB6B6"/>
<path d="M135.428 187.237C142.052 187.237 147.421 181.875 147.421 175.26C147.421 168.646 142.052 163.283 135.428 163.283C128.805 163.283 123.435 168.646 123.435 175.26C123.435 181.875 128.805 187.237 135.428 187.237Z" fill="#FFB7B7"/>
<path d="M125.66 173.455H125.659C124.132 173.454 122.602 173.452 121.07 173.449C120.888 173.448 120.707 173.411 120.539 173.339C120.371 173.268 120.22 173.163 120.093 173.032C119.968 172.904 119.87 172.752 119.806 172.585C119.741 172.418 119.711 172.24 119.718 172.062C119.83 169.524 120.557 167.05 121.834 164.854C123.112 162.657 124.902 160.801 127.054 159.445C129.316 158.067 131.897 157.299 134.545 157.216C137.193 157.132 139.818 157.736 142.162 158.968C144.507 160.2 146.491 162.018 147.922 164.246C149.352 166.473 150.18 169.032 150.324 171.674C150.334 171.852 150.308 172.031 150.249 172.2C150.189 172.368 150.096 172.523 149.976 172.656C149.856 172.788 149.71 172.895 149.548 172.971C149.386 173.047 149.21 173.09 149.032 173.097C143.724 173.321 137.836 173.43 129.942 173.45H129.938C129.669 173.451 129.406 173.372 129.183 173.222C128.96 173.072 128.787 172.86 128.686 172.611L128.559 172.3C128.492 172.137 128.375 171.999 128.225 171.906C128.074 171.813 127.898 171.771 127.722 171.784C127.546 171.797 127.378 171.866 127.243 171.981C127.109 172.095 127.014 172.249 126.973 172.421C126.902 172.716 126.735 172.978 126.496 173.166C126.258 173.354 125.963 173.455 125.66 173.455Z" fill="#2F2E41"/>
<path d="M152.505 233.857C149.282 230.828 147.896 226.432 147.874 222.092C147.849 217.135 149.645 212.427 151.969 208.117C153.374 205.51 154.975 203.016 156.577 200.527C157.116 199.69 155.78 198.916 155.244 199.749C149.823 208.169 143.854 218.142 147.35 228.49C148.152 230.943 149.547 233.161 151.413 234.947C152.136 235.627 153.23 234.538 152.505 233.857Z" fill="#3F3D56"/>
<path d="M65.72 325.877C63.0641 325.04 60.2257 324.969 57.5312 325.672C57.5249 325.675 57.5203 325.674 57.5142 325.677C55.4259 326.219 53.4791 327.204 51.8066 328.565C51.7094 328.643 51.6171 328.723 51.5246 328.803C49.4054 330.618 47.8408 332.993 47.01 335.655L35.5511 372.223C34.6987 374.929 34.6404 377.823 35.3833 380.562C35.4282 380.716 35.4732 380.87 35.5183 381.023C36.0745 382.838 36.9697 384.531 38.1565 386.013C38.164 386.02 38.1699 386.029 38.1741 386.039C40.0268 388.336 42.522 390.031 45.342 390.907L66.9534 397.661L87.3314 332.631L65.72 325.877Z" fill="#D8EECE"/>
<path d="M99.7979 279.621L71.9647 368.443C71.8771 368.722 71.8454 369.015 71.8713 369.306C71.8972 369.596 71.9803 369.879 72.1157 370.138C72.2511 370.397 72.4363 370.626 72.6606 370.813C72.8849 371.001 73.144 371.142 73.423 371.229C73.702 371.316 73.9954 371.348 74.2866 371.322C74.5778 371.296 74.861 371.212 75.1199 371.077C75.3789 370.941 75.6086 370.756 75.7958 370.532C75.9831 370.308 76.1244 370.049 76.2114 369.77L102.644 285.419C103.001 284.273 102.906 283.033 102.376 281.955C101.847 280.876 100.924 280.041 99.7979 279.621Z" fill="#3F3D56"/>
<path d="M65.0849 402.534C67.2857 402.534 69.0697 400.752 69.0697 398.554C69.0697 396.356 67.2857 394.575 65.0849 394.575C62.8842 394.575 61.1001 396.356 61.1001 398.554C61.1001 400.752 62.8842 402.534 65.0849 402.534Z" fill="#3F3D56"/>
<path d="M39.1323 394.423C41.333 394.423 43.1171 392.641 43.1171 390.443C43.1171 388.246 41.333 386.464 39.1323 386.464C36.9315 386.464 35.1475 388.246 35.1475 390.443C35.1475 392.641 36.9315 394.423 39.1323 394.423Z" fill="#3F3D56"/>
<path d="M57.5313 325.672C53.4041 338.595 42.5928 372.385 38.1742 386.039C38.17 386.029 38.164 386.02 38.1566 386.013C36.9697 384.531 36.0745 382.838 35.5183 381.023C35.4734 380.87 35.4284 380.716 35.3833 380.562C40.1209 365.724 48.0556 340.7 51.5246 328.803C51.6172 328.723 51.7095 328.643 51.8066 328.565C53.4791 327.204 55.4259 326.219 57.5142 325.677C57.5203 325.674 57.5249 325.675 57.5313 325.672Z" fill="#3F3D56"/>
<path d="M383.15 402.794H0.703422C0.517194 402.793 0.338783 402.719 0.20729 402.587C0.0757977 402.455 0.00195312 402.277 0.00195312 402.091C0.00195312 401.905 0.0757977 401.727 0.20729 401.595C0.338783 401.463 0.517194 401.389 0.703422 401.389H383.15C383.337 401.389 383.515 401.463 383.647 401.595C383.778 401.727 383.852 401.905 383.852 402.091C383.852 402.277 383.778 402.455 383.647 402.587C383.515 402.719 383.337 402.793 383.15 402.794Z" fill="#CACACA"/>
<path d="M185.656 34.3435C179.582 28.3117 173.765 20.1086 165.2 20.1121C152.038 20.1174 146.384 39.1495 133.504 41.8541C127.752 43.062 121.882 40.6573 116.005 40.5533C110.127 40.4493 103.097 44.7113 104.339 50.4493L216.391 48.7623C204.809 47.5613 193.976 42.479 185.656 34.3435Z" fill="#F0F0F0"/>
<path d="M435.214 9.17554C422.052 9.18091 416.398 28.213 403.518 30.9175C397.765 32.1255 391.896 29.7208 386.018 29.6167C380.141 29.5127 373.111 33.7747 374.352 39.5128L486.405 37.8258C474.823 36.6248 463.99 31.5425 455.669 23.4069C449.596 17.3752 443.779 9.17201 435.214 9.17554Z" fill="#F0F0F0"/>
</g>
<defs>
<clipPath id="clip0_4036_252">
<rect width="492" height="403" fill="white"/>
</clipPath>
</defs>
</svg>
