<svg width="172" height="51" viewBox="0 0 172 51" fill="none" xmlns="http://www.w3.org/2000/svg">
<path d="M50.8641 27.8537C50.4974 29.6966 50.2801 31.5395 49.7232 33.2724C49.1392 35.0741 48.3922 36.8757 47.4279 38.4986C46.0425 40.8366 44.3312 42.9408 42.2532 44.7424C40.5962 46.1727 38.8169 47.4105 36.8883 48.3869C35.4622 49.1021 34.0089 49.8035 32.3791 50.0648C31.116 50.2711 29.8936 50.7937 28.6441 50.9037C26.7426 51.055 24.814 50.9862 22.899 50.9725C22.1248 50.9587 21.3235 50.9175 20.5629 50.7387C19.2183 50.4224 17.8737 50.051 16.5698 49.5972C15.7549 49.3221 15.0079 48.8545 14.2473 48.4419C13.2966 47.9193 12.3187 47.4105 11.4223 46.8053C10.39 46.1039 9.33065 45.3888 8.43425 44.5224C7.14397 43.2983 5.81294 42.0468 4.82147 40.589C3.5991 38.7736 2.60762 36.7794 1.73838 34.7577C0.638245 32.2272 0.176461 29.5316 0.0406419 26.7398C-0.122341 23.4115 0.176461 20.1796 1.3445 17.0852C2.06434 15.1873 3.05582 13.3856 4.02014 11.584C5.06594 9.60355 6.72293 8.10447 8.20336 6.49538C8.95036 5.6702 10.0641 5.2026 10.9469 4.50119C12.4681 3.30469 14.1658 2.46575 15.9315 1.73685C18.2132 0.787891 20.5629 0.100242 23.0212 0.0314775C24.977 -0.0235344 26.9464 0.0864894 28.9022 0.237772C32.026 0.471573 34.9054 1.53055 37.6489 3.01587C39.5232 4.01984 41.2481 5.2301 42.7693 6.72918C43.5027 7.45808 44.3312 8.10447 45.0103 8.88839C45.6215 9.5898 46.124 10.4012 46.5994 11.1989C47.3328 12.4092 48.0798 13.6332 48.7181 14.8984C49.7775 16.9889 50.3887 19.2306 50.7011 21.5411C50.9184 23.1227 50.932 24.7181 50.9863 26.3134C51.0135 26.7948 50.9184 27.3036 50.8641 27.8537ZM46.1647 31.7596C45.9882 31.7183 45.8116 31.6633 45.635 31.6496C42.3618 31.4158 39.1972 31.8421 36.1549 33.0936C35.4079 33.4099 34.6473 33.6988 33.8324 33.9876C33.8052 33.9876 33.7916 33.9876 33.7781 33.8775C35.2313 32.6948 36.1956 31.1682 36.9019 29.3253C37.1464 29.3116 37.3908 29.2841 37.6489 29.2841C39.985 29.2703 42.3075 29.2703 44.7658 29.2841C45.8388 29.2841 46.9117 29.2841 47.9711 29.2841C48.2835 27.0286 48.4193 24.8556 48.1613 22.6001C48.1205 22.3113 48.0662 22.0225 48.0255 21.7337C47.5773 18.9281 46.6673 16.3012 45.1461 13.7982C44.5892 12.9868 44.0731 12.1341 43.4619 11.3639C41.3296 8.66835 38.7626 6.49538 35.7067 4.9688C31.6457 2.93336 27.3402 2.14944 22.8311 2.67205C21.4321 2.83708 20.0739 3.27718 18.6207 3.5935C18.5528 3.621 18.4713 3.63476 18.2947 3.67602C16.7056 4.43243 15.1165 5.17509 13.446 5.94526C12.9163 6.31659 12.3866 6.68792 11.8026 7.073C11.789 7.10051 11.789 7.11426 11.6803 7.16927C9.41215 8.92965 7.4971 11.0201 5.93518 13.5782C4.86221 15.311 4.00655 17.1402 3.4497 19.2169C2.82493 21.4311 2.49896 23.6866 2.64836 26.1209C2.72986 27.1798 2.81135 28.2251 2.89284 29.2703C4.40043 29.2703 5.7722 29.2703 7.27979 29.2978C9.33065 29.2978 11.3815 29.3116 13.446 29.2978C13.8534 29.2978 14.0707 29.3803 14.2337 29.8067C14.8449 31.2782 15.7006 32.571 16.8686 33.6575C16.9637 33.74 17.0044 33.8775 16.9637 34.0013C16.5426 33.8363 16.1352 33.6713 15.7141 33.4925C11.8297 31.8421 7.80948 31.4158 3.5991 32.1309C3.95223 33.0386 4.29177 33.9051 4.61774 34.7715C4.7943 34.7577 4.90296 34.744 5.01161 34.744C8.42067 34.3451 11.7211 34.8128 14.8992 36.133C17.765 37.3158 20.6172 38.4573 23.7546 38.7323C26.6204 38.9799 29.3639 38.5811 32.1482 37.5909C32.5693 37.4258 32.9767 37.2608 33.4928 37.082C33.7645 36.9582 34.0497 36.8344 34.4164 36.6832C34.9868 36.3943 35.5437 36.1055 36.1956 35.803C36.345 35.7067 36.4944 35.6242 36.7389 35.5279C37.7168 35.019 38.6947 34.4964 39.6862 34.0151C41.7778 33.0111 43.9781 32.3235 46.3685 31.9659C46.45 31.9384 46.5179 31.9246 46.5994 31.8971C46.5994 31.8696 46.5858 31.8559 46.5858 31.8284C46.45 31.8008 46.3549 31.8008 46.1647 31.7596ZM43.2718 35.0053C42.8915 35.1566 42.4976 35.2666 42.1309 35.4454C39.9171 36.5319 37.7168 37.6321 35.503 38.7048C32.7458 40.0389 29.8665 40.8916 26.8105 41.1254C22.8175 41.4279 19.0689 40.4652 15.4289 38.8699C13.4595 38.0034 11.4494 37.2333 9.28991 37.0682C8.16261 36.972 7.02173 37.0545 5.78578 37.0545C5.98951 37.3708 6.16607 37.5909 6.27473 37.8384C6.58711 38.4985 7.07606 38.6361 7.78232 38.6773C9.01827 38.7323 10.2814 38.8424 11.4494 39.1862C13.3645 39.7638 15.2252 40.5202 17.0995 41.2354C20.9296 42.7207 24.8412 43.3121 28.9157 42.6382C31.5642 42.1981 34.0633 41.3042 36.4673 40.1214C39.1701 38.8011 41.9 37.5496 44.888 37.0407C45.0103 37.0132 45.1868 36.9582 45.2276 36.8619C45.635 36.0505 46.0153 35.2253 46.4092 34.4002C46.3685 34.3451 46.3141 34.2764 46.2734 34.2214C45.3227 34.4827 44.3448 34.7165 43.2718 35.0053ZM23.9448 47.0254C26.145 47.1217 28.3181 46.9841 30.4777 46.5578C33.8324 45.9114 36.9562 44.6049 39.9442 43.0095C41.1394 42.3769 42.0358 41.1666 43.0681 40.2177C43.0002 40.1076 42.9187 39.9976 42.8508 39.8876C40.8135 40.7953 38.7626 41.6617 36.7525 42.6107C31.1024 45.2925 25.2486 46.159 19.1775 44.4123C16.9908 43.7797 14.9128 42.8032 12.7669 42.0606C11.5309 41.6342 10.2406 41.3592 8.97752 41.0291C8.95036 41.1116 8.90962 41.2079 8.88245 41.2904C9.76528 42.0743 10.5123 42.9683 11.6667 43.4496C15.5919 45.0862 19.5035 46.7503 23.9448 47.0254Z" fill="#171F20"/>
<path d="M29.1739 29.958C29.1603 29.8479 29.1603 29.9167 29.0516 29.2978C28.9702 28.8302 28.9022 28.4451 28.8615 28.1838C28.9566 28.0738 29.0381 28.005 29.1603 27.9363C29.269 27.895 29.3233 27.84 29.4319 27.785C31.5643 26.5472 33.1262 24.8831 33.8325 22.5038C32.2706 24.1404 30.5049 25.4745 28.4676 26.4784C28.2503 26.0108 28.0602 25.6258 27.8836 25.2269C27.8564 25.1719 27.8429 25.1032 27.8293 25.0344C31.347 22.3388 33.2756 19.712 32.9361 18.0341C31.4964 20.4134 29.5134 22.16 27.0687 23.3978C27.0144 23.3428 26.9872 23.329 26.9736 23.2603C29.1875 17.4978 28.1688 12.1754 24.9907 6.97673C25.1672 9.8511 26.3896 12.4367 26.376 15.091C24.8413 13.8945 23.3065 12.6842 21.7718 11.474C22.1385 12.9318 23.0213 13.9632 23.9584 14.9535C24.7054 15.7511 25.4117 16.5763 26.1315 17.4015C26.2538 17.5528 26.3896 17.7591 26.376 17.9379C26.3081 19.3407 26.1587 20.7297 25.4796 22.105C23.4287 19.6432 20.5901 18.5017 18.0232 16.9476C18.9603 18.708 20.3728 19.9595 21.8668 21.1423C24.9228 23.5353 27.2453 26.3684 27.2588 30.6043C27.1909 31.347 27.1366 32.0209 27.0823 32.8736C26.7291 32.3235 26.4983 31.9659 26.2674 31.567C24.9499 30.2193 23.7547 28.7614 22.3014 27.6337C20.7803 26.4372 19.0146 25.557 17.3305 24.5118C17.2626 24.5118 17.2354 24.5255 17.1947 24.5255C17.2218 24.5668 17.2354 24.608 17.2626 24.7043C17.996 26.1071 19.0418 27.1661 20.2098 28.1013C21.8668 29.4078 23.4967 30.7281 24.719 32.5573C25.0178 33.1074 25.2895 33.6162 25.5611 34.1251C25.6698 34.5102 25.7784 34.8953 25.9006 35.3491C25.3302 35.3491 24.8277 35.3491 24.2708 35.3629C23.3201 35.1428 22.3694 35.0328 21.5544 34.634C20.5086 34.1251 19.5172 33.465 18.6343 32.7085C17.1675 31.4845 16.176 29.8342 15.5105 28.06C15.0759 26.9185 14.9672 25.667 14.6956 24.4017C14.6413 22.5038 14.7092 20.6747 15.1302 18.818C15.2117 18.5017 15.3068 18.2404 15.4154 17.8966C15.6192 17.2915 15.7821 16.7688 15.9587 16.2462C16.0945 15.9574 16.2168 15.6686 16.3933 15.2973C16.4748 15.1185 16.5291 15.0085 16.5699 14.8984C16.76 14.5546 16.9502 14.197 17.1811 13.7845C17.2761 13.5919 17.3305 13.4681 17.3984 13.3444C19.1233 10.5525 21.2828 8.14573 23.8498 6.00027C24.0128 5.84899 24.1214 5.75272 24.2165 5.65645C24.298 5.60143 24.3931 5.54642 24.5289 5.45015C24.6511 5.34013 24.7326 5.27136 24.8005 5.2026C25.2623 4.72124 25.6562 4.83127 26.1587 5.24386C29.9752 8.35203 33.1941 11.914 34.9869 16.6176C36.0192 19.3407 36.4674 22.1463 36.0599 25.1307C35.6524 26.5335 35.2314 27.8675 34.8104 29.2703C33.8596 31.2095 32.4471 32.681 30.7901 33.9051C30.0975 34.4139 29.201 34.6202 28.3454 34.9778C28.6034 33.795 29.0381 31.8284 29.0381 31.8284C29.0516 31.8284 29.2825 30.9069 29.1739 29.958Z" fill="#171F20"/>
<path d="M76.832 25.6L77.048 25.264C78.168 25.28 79.136 25.424 79.952 25.696C80.768 25.952 81.4 26.376 81.848 26.968C82.296 27.544 82.52 28.32 82.52 29.296C82.52 30.288 82.272 31.136 81.776 31.84C81.296 32.544 80.576 33.08 79.616 33.448C78.656 33.816 77.464 34 76.04 34H68.864V32.272L71.096 31.624L70.64 32.32V18.88L71.192 19.6L68.864 18.952V17.224L73.928 17.104H76.4C77.568 17.104 78.56 17.256 79.376 17.56C80.192 17.848 80.816 18.304 81.248 18.928C81.68 19.536 81.896 20.32 81.896 21.28C81.896 22.592 81.472 23.608 80.624 24.328C79.792 25.032 78.528 25.456 76.832 25.6ZM75.728 19.528H73.544L74.072 19V24.688L73.544 24.208H75.2C75.808 24.208 76.352 24.136 76.832 23.992C77.328 23.848 77.72 23.6 78.008 23.248C78.296 22.88 78.44 22.384 78.44 21.76C78.44 21.168 78.32 20.712 78.08 20.392C77.84 20.072 77.512 19.848 77.096 19.72C76.696 19.592 76.24 19.528 75.728 19.528ZM75.728 31.552C76.352 31.552 76.912 31.48 77.408 31.336C77.904 31.192 78.296 30.936 78.584 30.568C78.872 30.2 79.016 29.696 79.016 29.056C79.016 28.432 78.888 27.944 78.632 27.592C78.376 27.224 78.048 26.968 77.648 26.824C77.248 26.68 76.808 26.608 76.328 26.608H73.544L74.072 26.008V32.104L73.544 31.552H75.728ZM88.8281 32.032L88.5881 31.744L90.4361 32.272V34H83.8601V32.272L85.7081 31.744L85.4681 32.032V23.272L85.6841 23.488L83.8601 22.984V21.256L88.8281 21.088V32.032ZM87.0521 19.216C86.4601 19.216 85.9801 19.048 85.6121 18.712C85.2601 18.376 85.0841 17.896 85.0841 17.272C85.0841 16.6 85.2681 16.104 85.6361 15.784C86.0201 15.448 86.5001 15.28 87.0761 15.28C87.6361 15.28 88.1001 15.448 88.4681 15.784C88.8361 16.104 89.0201 16.592 89.0201 17.248C89.0201 17.904 88.8281 18.4 88.4441 18.736C88.0761 19.056 87.6121 19.216 87.0521 19.216ZM97.9087 20.896C99.7967 20.896 101.269 21.456 102.325 22.576C103.381 23.696 103.909 25.288 103.909 27.352C103.909 28.792 103.653 30.032 103.141 31.072C102.629 32.096 101.893 32.888 100.933 33.448C99.9727 34.008 98.8207 34.288 97.4767 34.288C95.5887 34.288 94.1247 33.728 93.0847 32.608C92.0607 31.488 91.5487 29.896 91.5487 27.832C91.5487 26.392 91.7967 25.16 92.2927 24.136C92.8047 23.096 93.5327 22.296 94.4767 21.736C95.4207 21.176 96.5647 20.896 97.9087 20.896ZM97.7407 23.296C96.8287 23.296 96.1487 23.656 95.7007 24.376C95.2527 25.08 95.0287 26.176 95.0287 27.664C95.0287 29.152 95.2447 30.232 95.6767 30.904C96.1087 31.56 96.7647 31.888 97.6447 31.888C98.2847 31.888 98.8047 31.728 99.2047 31.408C99.6047 31.088 99.9087 30.6 100.117 29.944C100.325 29.288 100.429 28.48 100.429 27.52C100.429 26.064 100.205 25 99.7567 24.328C99.3087 23.64 98.6367 23.296 97.7407 23.296ZM120.448 32.368L119.512 31.648L121.576 32.272V34H114.76V32.272L116.584 31.648L116.512 32.224L112.408 25.936L113.32 26.608H110.2L110.728 25.912V32.32L110.296 31.576L112.408 32.272V34H105.52V32.272L107.656 31.648L107.296 32.32V18.856L107.656 19.504L105.52 18.952V17.224L112.408 17.104V18.784L110.296 19.504L110.728 18.784V24.688L110.2 24.136H113.56L112.672 24.664L116.08 18.904L116.344 19.408L114.328 18.952V17.224L120.808 17.104V18.832L118.672 19.504L119.416 18.928L115.264 25.648V24.76L120.448 32.368ZM126.795 34.288C125.723 34.288 124.827 33.944 124.107 33.256C123.387 32.552 123.027 31.496 123.027 30.088V23.08L123.339 23.56L121.443 22.984V21.256L126.387 21.088V29.536C126.387 30.288 126.555 30.848 126.891 31.216C127.227 31.568 127.675 31.744 128.235 31.744C128.667 31.744 129.139 31.632 129.651 31.408C130.179 31.168 130.699 30.8 131.211 30.304L130.971 30.904V23.008L131.283 23.56L129.387 22.984V21.256L134.331 21.088V32.224L133.923 31.648L135.939 32.272V33.976L131.715 34.168L131.259 31.816L131.739 31.984C130.939 32.752 130.107 33.328 129.243 33.712C128.395 34.096 127.579 34.288 126.795 34.288ZM141.864 34.288C140.936 34.288 140.112 34.048 139.392 33.568C138.688 33.072 138.128 32.344 137.712 31.384C137.312 30.424 137.112 29.256 137.112 27.88C137.112 25.512 137.712 23.76 138.912 22.624C140.112 21.472 141.8 20.896 143.976 20.896C144.328 20.896 144.68 20.912 145.032 20.944C145.384 20.976 145.752 21.032 146.136 21.112L145.512 21.496V17.536L145.752 17.872L143.784 17.224V15.52L148.872 15.328V32.128L148.464 31.648L150.48 32.272V33.976L146.256 34.168L145.824 32.104L146.16 32.224C145.456 32.912 144.752 33.432 144.048 33.784C143.36 34.12 142.632 34.288 141.864 34.288ZM143.16 31.816C143.576 31.816 144.016 31.704 144.48 31.48C144.944 31.24 145.424 30.896 145.92 30.448L145.512 31.456V22.84L145.92 23.608C145.168 23.4 144.488 23.296 143.88 23.296C142.744 23.296 141.912 23.68 141.384 24.448C140.872 25.2 140.616 26.24 140.616 27.568C140.616 28.432 140.72 29.184 140.928 29.824C141.136 30.464 141.424 30.96 141.792 31.312C142.176 31.648 142.632 31.816 143.16 31.816ZM156.492 32.032L156.252 31.744L158.1 32.272V34H151.524V32.272L153.372 31.744L153.132 32.032V23.272L153.348 23.488L151.524 22.984V21.256L156.492 21.088V32.032ZM154.716 19.216C154.124 19.216 153.644 19.048 153.276 18.712C152.924 18.376 152.748 17.896 152.748 17.272C152.748 16.6 152.932 16.104 153.3 15.784C153.684 15.448 154.164 15.28 154.74 15.28C155.3 15.28 155.764 15.448 156.132 15.784C156.5 16.104 156.684 16.592 156.684 17.248C156.684 17.904 156.492 18.4 156.108 18.736C155.74 19.056 155.276 19.216 154.716 19.216Z" fill="#171F20"/>
<path d="M163.392 11.168V10.576L164.096 10.336L163.92 10.592V6.736L164.16 7.008L163.392 6.8V6.192L165.248 6.144H165.888C166.507 6.144 166.976 6.26667 167.296 6.512C167.627 6.74667 167.792 7.088 167.792 7.536C167.792 7.89867 167.659 8.20267 167.392 8.448C167.125 8.69333 166.704 8.85333 166.128 8.928L166.208 8.752C166.517 8.76267 166.752 8.82667 166.912 8.944C167.072 9.05067 167.211 9.22133 167.328 9.456L167.888 10.576L167.504 10.352L168.192 10.576V11.168H166.88L166.24 9.712C166.165 9.52 166.08 9.38667 165.984 9.312C165.899 9.22667 165.803 9.17333 165.696 9.152C165.589 9.13067 165.461 9.12 165.312 9.12H164.912L165.104 8.928V10.592L164.944 10.336L165.744 10.576V11.168H163.392ZM165.104 8.544L164.912 8.352H165.456C165.808 8.352 166.075 8.29333 166.256 8.176C166.437 8.048 166.528 7.86133 166.528 7.616C166.528 7.41333 166.453 7.25867 166.304 7.152C166.165 7.03467 165.947 6.976 165.648 6.976H164.912L165.104 6.768V8.544ZM165.552 13.472C164.635 13.4613 163.824 13.2587 163.12 12.864C162.416 12.4693 161.861 11.9253 161.456 11.232C161.061 10.5387 160.864 9.73333 160.864 8.816C160.864 7.87733 161.072 7.04533 161.488 6.32C161.915 5.59467 162.496 5.024 163.232 4.608C163.979 4.18133 164.816 3.968 165.744 3.968C166.672 3.968 167.493 4.17067 168.208 4.576C168.933 4.97067 169.504 5.51467 169.92 6.208C170.336 6.90133 170.544 7.70667 170.544 8.624C170.544 9.30667 170.416 9.94667 170.16 10.544C169.904 11.1307 169.547 11.6427 169.088 12.08C168.64 12.5173 168.112 12.8587 167.504 13.104C166.907 13.3493 166.256 13.472 165.552 13.472ZM165.584 12.512C166.32 12.512 166.976 12.3467 167.552 12.016C168.139 11.6853 168.597 11.2267 168.928 10.64C169.269 10.0533 169.44 9.38667 169.44 8.64C169.44 7.89333 169.28 7.248 168.96 6.704C168.64 6.14933 168.197 5.71733 167.632 5.408C167.077 5.09867 166.443 4.944 165.728 4.944C165.003 4.944 164.352 5.10933 163.776 5.44C163.211 5.76 162.768 6.21333 162.448 6.8C162.128 7.376 161.968 8.04267 161.968 8.8C161.968 9.536 162.117 10.1867 162.416 10.752C162.725 11.3067 163.152 11.7387 163.696 12.048C164.24 12.3573 164.869 12.512 165.584 12.512Z" fill="#171F20"/>
</svg>
